<svg width="48" height="48" viewBox="0 0 48 48" fill="none" xmlns="http://www.w3.org/2000/svg">
<circle cx="24" cy="24" r="23.5" fill="white" stroke="black"/>
<path fill-rule="evenodd" clip-rule="evenodd" d="M12.0018 40.8004L17.7637 36.5788H20.6161L19.361 37.7198H29.1162L27.8612 36.5788H30.3713L36.0761 40.8004H12.0018ZM17.2502 39.089L15.767 40.287H32.6532L31.0559 39.089H17.2502Z" fill="white"/>
<path fill-rule="evenodd" clip-rule="evenodd" d="M11.2031 31.3304V10.736C11.2031 9.65213 13.0058 6.40039 16.1093 6.40039H32.7673C34.1935 6.40039 36.8602 8.29226 36.8031 12.0004C36.7427 15.9248 36.8031 26.2752 36.8031 31.2004C36.8031 32.5125 35.4029 35.7802 32.0257 35.7802H15.6529C14.2837 35.7802 11.2031 33.7264 11.2031 31.3304ZM15.2031 22.549C14.3474 22.549 13.7199 21.6933 13.7199 21.0087V15.475C13.7199 14.5622 14.5756 13.9918 15.3172 13.9918H24.1431H32.8628C33.8212 13.9918 34.4031 15.1327 34.4031 15.8744V18.3274V20.7805C34.4031 22.0584 33.6045 22.549 32.8628 22.549C30.7901 22.587 16.075 22.549 15.2031 22.549ZM29.4015 11.0226H18.7905C18.5623 11.0226 17.9918 10.9656 17.9918 9.88165C17.9918 9.01452 18.5243 8.75971 18.7905 8.74069H29.4015C29.6867 8.74069 30.3142 8.79774 30.3142 9.88165C30.3142 10.7488 29.7057 11.0036 29.4015 11.0226ZM15.5388 30.0183C16.736 30.0183 17.7066 29.0477 17.7066 27.8505C17.7066 26.6532 16.736 25.6826 15.5388 25.6826C14.3415 25.6826 13.371 26.6532 13.371 27.8505C13.371 29.0477 14.3415 30.0183 15.5388 30.0183ZM32.6353 30.0183C33.8326 30.0183 34.8031 29.0477 34.8031 27.8505C34.8031 26.6532 33.8326 25.6826 32.6353 25.6826C31.438 25.6826 30.4675 26.6532 30.4675 27.8505C30.4675 29.0477 31.438 30.0183 32.6353 30.0183Z" fill="#2A2827"/>
<path d="M17.7066 27.8505C17.7066 29.0477 16.736 30.0183 15.5388 30.0183C14.3415 30.0183 13.371 29.0477 13.371 27.8505C13.371 26.6532 14.3415 25.6826 15.5388 25.6826C16.736 25.6826 17.7066 26.6532 17.7066 27.8505Z" fill="white"/>
<path d="M34.8031 27.8505C34.8031 29.0477 33.8326 30.0183 32.6353 30.0183C31.438 30.0183 30.4675 29.0477 30.4675 27.8505C30.4675 26.6532 31.438 25.6826 32.6353 25.6826C33.8326 25.6826 34.8031 26.6532 34.8031 27.8505Z" fill="white"/>
<path d="M17.8945 36.9788H19.5814L19.0919 37.4238L18.3264 38.1198H19.361H29.1162H30.1509L29.3853 37.4238L28.8958 36.9788H30.2394L34.8631 40.4004H33.4711L32.8932 39.967L31.2959 38.769L31.1892 38.6889H31.0559H17.2502H17.1089L16.9989 38.7778L15.5156 39.9758L14.9899 40.4004H13.2245L17.8945 36.9788ZM29.4015 11.4226H29.414L29.4264 11.4218C29.6581 11.4074 29.9765 11.3088 30.2424 11.0649C30.521 10.8092 30.7142 10.4189 30.7142 9.88165C30.7142 9.26306 30.5322 8.83922 30.2104 8.58896C29.9069 8.35293 29.5619 8.34069 29.4015 8.34069H18.7905H18.7763L18.762 8.34171C18.5353 8.3579 18.2407 8.46661 18.0019 8.71707C17.7544 8.97655 17.5918 9.36095 17.5918 9.88165C17.5918 10.4887 17.7525 10.9061 18.0422 11.1596C18.3248 11.4069 18.6474 11.4226 18.7905 11.4226H29.4015ZM11.6031 31.3304V10.736C11.6031 10.5521 11.6872 10.2089 11.8945 9.77313C12.0964 9.34863 12.3983 8.87208 12.7921 8.42671C13.5818 7.53356 14.7075 6.80039 16.1093 6.80039H32.7673C33.3331 6.80039 34.2558 7.19622 35.0433 8.07654C35.8158 8.93995 36.4301 10.2431 36.4032 11.9942C36.3612 14.7239 36.3775 20.5584 36.3914 25.5152C36.3975 27.692 36.4031 29.6995 36.4031 31.2004C36.4031 31.753 36.0924 32.8129 35.3666 33.7349C34.6539 34.6402 33.5676 35.3802 32.0257 35.3802H15.6529C15.3957 35.3802 15.0089 35.279 14.5524 35.0609C14.1042 34.8468 13.6206 34.535 13.176 34.1511C12.2731 33.3713 11.6031 32.3597 11.6031 31.3304ZM13.3199 21.0087C13.3199 21.4633 13.5229 21.9395 13.8405 22.3C14.1618 22.6648 14.6352 22.949 15.2031 22.949C15.3489 22.949 15.8877 22.9501 16.693 22.9517C20.6667 22.9596 31.1285 22.9806 32.8667 22.949C33.3214 22.9481 33.8107 22.797 34.189 22.4317C34.5736 22.0602 34.8031 21.5065 34.8031 20.7805V18.3274V15.8744C34.8031 15.4147 34.6284 14.8648 34.3198 14.4252C34.0094 13.9829 33.5167 13.5918 32.8628 13.5918H24.1431H15.3172C14.4242 13.5918 13.3199 14.2777 13.3199 15.475V21.0087ZM15.5388 30.4183C16.957 30.4183 18.1066 29.2686 18.1066 27.8505C18.1066 26.4323 16.957 25.2826 15.5388 25.2826C14.1206 25.2826 12.971 26.4323 12.971 27.8505C12.971 29.2686 14.1206 30.4183 15.5388 30.4183ZM17.3066 27.8505C17.3066 28.8268 16.5151 29.6183 15.5388 29.6183C14.5624 29.6183 13.771 28.8268 13.771 27.8505C13.771 26.8741 14.5624 26.0826 15.5388 26.0826C16.5151 26.0826 17.3066 26.8741 17.3066 27.8505ZM32.6353 30.4183C34.0535 30.4183 35.2031 29.2686 35.2031 27.8505C35.2031 26.4323 34.0535 25.2826 32.6353 25.2826C31.2171 25.2826 30.0675 26.4323 30.0675 27.8505C30.0675 29.2686 31.2171 30.4183 32.6353 30.4183ZM34.4031 27.8505C34.4031 28.8268 33.6116 29.6183 32.6353 29.6183C31.659 29.6183 30.8675 28.8268 30.8675 27.8505C30.8675 26.8741 31.659 26.0826 32.6353 26.0826C33.6116 26.0826 34.4031 26.8741 34.4031 27.8505Z" stroke="#2A2827" stroke-width="0.8"/>
</svg>
