<svg width="131" height="102" viewBox="0 0 131 102" fill="none" xmlns="http://www.w3.org/2000/svg">
<path d="M81.3933 77H72.91V102H81.3933V77Z" fill="#EFEFEF"/>
<path d="M20.6349 77H12.1517V102H20.6349V77Z" fill="#EFEFEF"/>
<path d="M93.545 77H85.0617V102H93.545V77Z" fill="#EFEFEF"/>
<path d="M32.7866 77H24.3034V102H32.7866V77Z" fill="#EFEFEF"/>
<path d="M105.697 77H97.2134V102H105.697V77Z" fill="#EFEFEF"/>
<path d="M44.9383 77H36.455V102H44.9383V77Z" fill="#EFEFEF"/>
<path d="M117.848 77H109.365V102H117.848V77Z" fill="#EFEFEF"/>
<path d="M57.0899 77H48.6067V102H57.0899V77Z" fill="#EFEFEF"/>
<path d="M130 77H121.517V102H130V77Z" fill="#EFEFEF"/>
<path d="M69.2416 77H60.7584V102H69.2416V77Z" fill="#EFEFEF"/>
<path d="M8.48324 77H0V102H8.48324V77Z" fill="#EFEFEF"/>
<path d="M130 55H0V36H130V55Z" fill="#6D6D6D"/>
<path d="M39.2821 27.844L44 34.8073H11.5897C13.5727 32.6269 17.6615 28.1394 18.1538 27.633C18.6462 27.1266 19.3162 27 19.5897 27H37.2308C38.3795 27 39.0769 27.5627 39.2821 27.844Z" fill="white"/>
<path d="M39.6923 44.7248C39.6923 41.8113 37.3963 39.4495 34.5641 39.4495C31.7319 39.4495 29.4359 41.8113 29.4359 44.7248H18.5641C18.5641 41.8113 16.2681 39.4495 13.4359 39.4495C10.6037 39.4495 8.30769 41.8113 8.30769 44.7248H6.25641C4.45128 44.7248 4 43.7401 4 43.2477V36.7064C4 35.1872 5.23077 34.8073 5.84615 34.8073H11.5897H44V42.1927C44 44.1339 43.1795 44.6896 42.7692 44.7248H39.6923Z" fill="#D1D1D1"/>
<path d="M34.5641 50C31.7319 50 29.4359 47.6382 29.4359 44.7248C29.4359 41.8113 31.7319 39.4495 34.5641 39.4495C37.3963 39.4495 39.6923 41.8113 39.6923 44.7248C39.6923 47.6382 37.3963 50 34.5641 50Z" fill="#F05634"/>
<path d="M13.4359 50C10.6037 50 8.30769 47.6382 8.30769 44.7248C8.30769 41.8113 10.6037 39.4495 13.4359 39.4495C16.2681 39.4495 18.5641 41.8113 18.5641 44.7248C18.5641 47.6382 16.2681 50 13.4359 50Z" fill="#F05634"/>
<path d="M29.4359 44.7248C29.4359 47.6382 31.7319 50 34.5641 50C37.3963 50 39.6923 47.6382 39.6923 44.7248M29.4359 44.7248C29.4359 41.8113 31.7319 39.4495 34.5641 39.4495C37.3963 39.4495 39.6923 41.8113 39.6923 44.7248M29.4359 44.7248H18.5641M39.6923 44.7248H42.7692C43.1795 44.6896 44 44.1339 44 42.1927V34.8073M8.30769 44.7248C8.30769 47.6382 10.6037 50 13.4359 50C16.2681 50 18.5641 47.6382 18.5641 44.7248M8.30769 44.7248C8.30769 41.8113 10.6037 39.4495 13.4359 39.4495C16.2681 39.4495 18.5641 41.8113 18.5641 44.7248M8.30769 44.7248H6.25641M44 34.8073L39.2821 27.844C39.0769 27.5627 38.3795 27 37.2308 27H19.5897C19.3162 27 18.6462 27.1266 18.1538 27.633C17.6615 28.1394 13.5727 32.6269 11.5897 34.8073M44 34.8073H11.5897M11.5897 34.8073H5.84615C5.23077 34.8073 4 35.1872 4 36.7064V43.2477C4 43.7401 4.45128 44.7248 6.25641 44.7248M6.25641 44.7248H8.51282M18.7406 44.7248H29.5623" stroke="#D1D1D1" stroke-width="0.920088"/>
<path d="M58.7119 8.55219L64.574 7.86533C64.6274 3.17172 60.0912 -1.63636 52.7349 0.538728C45.3785 2.71381 44.1142 10.7273 45.2636 14.5051C46.1831 17.5273 44.1908 20.1145 43.0797 21.0303C44.2073 23.0172 46.1202 23.9773 48.0222 24.2736C51.1613 24.7626 54.2704 23.4431 53.7694 21.9461C53.1257 20.0229 53.1946 18.0157 53.3096 17.2525V13.7037C55.5165 13.7037 57.8307 10.2694 58.7119 8.55219Z" fill="#6D6D6D"/>
<path d="M62.0452 19.3131C64.6199 17.1152 64.8038 10.7654 64.574 7.86533L58.7119 8.55219C57.8307 10.2694 55.5165 13.7037 53.3096 13.7037V17.2525C54.2162 18.0426 55.7261 19.0886 57.3326 19.6829C58.985 20.2942 60.7397 20.4276 62.0452 19.3131Z" fill="#EFEFEF"/>
<path d="M58.7119 45.8721C58.8241 45.9714 58.9448 46.0802 59.074 46.197C59.1038 46.224 59.134 46.2513 59.1647 46.2791C59.9467 46.9867 61.0196 47.9574 62.3757 48.8904C62.3805 48.8937 62.3853 48.8969 62.3901 48.9002C65.0008 50.693 68.6583 52.3422 73.3096 51.7104C74.8038 51.367 76.8728 50.1764 73.1946 48.1616C68.5969 45.6431 64.9188 42.3569 62.9648 39.6903C60.1142 39.6903 58.9418 43.8115 58.7119 45.8721Z" fill="#EFEFEF"/>
<path d="M53.3096 17.2525C53.1946 18.0157 53.1257 20.0229 53.7694 21.9461C54.2704 23.4431 51.1613 24.7626 48.0222 24.2736C48.0222 28.8401 51.6869 37.8302 51.3556 41.9798C50.8958 47.7374 49.5165 47.6229 49.0567 52.1684L44.574 85.4007C46.5155 85.27 49.2055 85.1164 52.0181 84.7837C53.2087 84.6428 54.4213 84.4844 55.6084 84.3087C56.552 84.1691 57.4795 84.0186 58.3671 83.8575C61.0682 83.3671 63.3996 82.7781 64.6892 82.0963C64.8615 82.0052 65.0152 81.9125 65.1487 81.8182L63.8843 67.7374L62.3901 48.9002C62.3853 48.8969 62.3805 48.8937 62.3757 48.8904C61.0196 47.9574 59.9467 46.9867 59.1647 46.2791C59.134 46.2513 59.1038 46.224 59.074 46.197C58.9448 46.0802 58.8241 45.9714 58.7119 45.8721C58.9418 43.8115 60.1142 39.6903 62.9648 39.6903C62.9648 38.9652 63.2866 37.1717 64.574 35.798C66.1832 34.0808 65.6084 31.3333 63.4245 30.0741C61.2406 28.8148 59.1717 26.0674 57.9073 24.9226C56.8958 24.0068 57.1027 21.0478 57.3326 19.6829C55.7261 19.0886 54.2162 18.0426 53.3096 17.2525Z" fill="#F05634"/>
<path d="M58.3671 100.168L65.0337 97.0774L64.6892 82.0963C63.3996 82.7781 61.0682 83.3671 58.3671 83.8575V100.168Z" fill="#6D6D6D"/>
<path d="M47.3326 96.8485L41.9303 94.7879L41.0243 98.0962C40.9473 98.3774 41.057 98.6765 41.2978 98.8421L45.7234 101.886H49.9447C50.497 101.886 50.8252 101.271 50.5167 100.815L47.3326 96.8485Z" fill="#6D6D6D"/>
<path d="M65.0337 97.0774L58.3671 100.168L58.1322 101.338C58.0753 101.621 58.2929 101.886 58.5831 101.886H68.1094C68.7198 101.886 69.0292 101.154 68.6028 100.719L65.0337 97.0774Z" fill="#6D6D6D"/>
<path d="M41.9303 94.7879L47.3326 96.8485L52.0181 84.7837C49.2055 85.1164 46.5155 85.27 44.574 85.4007L41.9303 94.7879Z" fill="#6D6D6D"/>
<path d="M111.575 93.8721C111.575 90.8898 113.345 85.8586 119.506 85.8586C125.667 85.8586 127.437 90.8923 127.437 93.8721C127.437 96.734 125.851 102 119.506 102C113.161 102 111.575 96.8485 111.575 93.8721Z" fill="#6D6D6D"/>
<path d="M90.1954 93.8721C90.1954 90.8898 91.9655 85.8586 98.1264 85.8586C104.287 85.8586 106.057 90.8923 106.057 93.8721C106.057 96.734 104.471 102 98.1264 102C91.7816 102 90.1954 96.8485 90.1954 93.8721Z" fill="#6D6D6D"/>
<path d="M85.5977 61.5892L76.5172 51.9731H72.3793V53.3468H76.5172L85.7265 63.3064C85.6585 62.7016 85.6165 62.1266 85.5977 61.5892Z" fill="#6D6D6D"/>
<path d="M107.667 61.5892H85.5977C85.6165 62.1266 85.6585 62.7016 85.7265 63.3064C86.629 71.3335 92.1119 84.5993 108.701 84.5993C126.54 84.5993 131 69.2593 131 61.5892H107.667Z" fill="#F05634"/>
<path d="M107.667 61.5892H131C131 41.6243 115.444 38.0067 107.667 38.6936V61.5892Z" fill="#EFEFEF"/>
</svg>
