<svg width="115" height="102" viewBox="0 0 115 102" fill="none" xmlns="http://www.w3.org/2000/svg">
<path d="M10.1976 73.1993C10.1976 70.7454 10.2502 67.2583 5.73018 67.2583C1.21018 67.2583 1 70.2288 1 73.1993V102M104.802 72.941C104.802 70.4871 104.75 67 109.27 67C113.79 67 114 69.9705 114 72.941V101.742" stroke="#6D6D6D" stroke-width="1.57663"/>
<path d="M30.8778 26.0589C27.4556 26.0589 25.5499 23.5649 24.3148 20.759C20.5295 23.3867 13.8139 28.0297 11.5824 33.0223C8.30438 40.3563 2.39418 62.5397 3.0504 65.4747C3.50366 67.5019 7.38221 69.0221 9.48229 66.9199C11.8893 64.5105 16.3079 51.4164 18.6706 44.7157V65.4747H44.5291L44.5291 65.4302L44.5291 44.7157C46.4105 51.504 50.1733 63.985 53.4548 66.9199C55.6089 68.8465 58.1094 67.9504 59.2306 66.6913C59.7124 66.1502 59.9656 65.4238 59.8867 64.555C59.8167 63.7842 59.196 61.0797 58.2561 57.4601C55.6713 47.5058 52.1422 32.1026 48.0731 28.0297C45.2379 25.1917 40.5305 21.8539 38.6223 20.759C38.0464 22.0284 35.3575 26.0589 30.8778 26.0589Z" fill="#F05634"/>
<path d="M18.6706 97.1387C18.6706 100.248 20.3935 102 24.1198 102C28.7777 102 31.5342 98.7153 31.5342 94.3796V94.3352C31.5342 98.6709 34.2907 101.956 38.9486 101.956C42.6749 101.956 44.2665 99.5906 44.5291 97.0943L44.5291 65.4747H18.6706V97.1387Z" fill="#6D6D6D"/>
<path d="M26.8087 0.044448C25.5868 -0.52002 23.9233 4.4169 23.0229 7.75178H39.9103C39.637 1.81114 37.1466 0.127165 35.8657 0.044448C31.7966 2.80356 28.5151 0.832764 26.8087 0.044448Z" fill="#F05634"/>
<path d="M22.7396 8.84731H39.9348C39.9348 8.46698 39.9264 8.10198 39.9103 7.75178H23.0229C22.9173 8.1428 22.8222 8.51179 22.7396 8.84731Z" fill="#F05634"/>
<path d="M39.9348 8.84731H44.529V7.75178H39.9103C39.9264 8.10198 39.9348 8.46698 39.9348 8.84731Z" fill="#F05634"/>
<path d="M18.0142 8.84731H22.7396C22.8222 8.51179 22.9173 8.1428 23.0229 7.75178H18.0142V8.84731Z" fill="#F05634"/>
<path d="M89.2601 30.0005C87.915 31.4302 86.094 32.4968 83.6452 32.4968C81.5341 32.4968 79.8664 31.4499 78.5913 30.0005C74.9817 31.8399 68.9437 34.2918 65.5311 40.1172C63.4644 43.6452 59.9373 53.212 58.2561 57.4601C59.196 61.0797 59.8167 63.7842 59.8867 64.555C59.9656 65.4238 59.7124 66.1502 59.2306 66.6913C59.9307 67.8851 61.9083 69.5565 64.2185 66.6913C65.7026 64.8507 67.7355 59.3425 69.4057 54.1755C69.5612 54.9758 69.9123 55.9811 70.5053 56.9346L64.8748 91.3577H73.1443H83.1202H85.3516H94.2774H102.416L97.0551 56.9346C98.1168 55.9569 98.8315 54.9168 99.1919 54.1755C101.678 60.3485 105.078 66.7033 108.219 66.9771C108.455 66.9398 108.708 66.9199 108.979 66.9199C114.885 65.4747 106.353 47.3434 102.416 40.1172C99.2653 34.3362 92.3326 30.964 89.2601 30.0005Z" fill="#F05634"/>
<path d="M83.6762 12.1405C83.6919 15.2118 82.1002 20.8272 75.3757 23.1684C75.737 25.0021 76.7586 27.9171 78.5913 30.0005C79.8664 31.4499 81.5341 32.4968 83.6452 32.4968C86.094 32.4968 87.915 31.4302 89.2601 30.0005C91.4479 27.675 92.3771 24.3888 92.7022 23.1684C86.0475 23.1684 83.9571 16.1941 83.6762 12.1405Z" fill="#EFEFEF"/>
<path d="M75.3757 23.1684C82.1002 20.8272 83.6919 15.2118 83.6762 12.1405C83.6601 11.9085 83.6499 11.6861 83.6452 11.475C81.5838 11.475 79.9976 11.9951 78.7885 12.8338C75.3167 15.2422 74.9539 20.2774 75.3757 23.1684Z" fill="#6D6D6D"/>
<path d="M78.7885 12.8338C79.9976 11.9951 81.5838 11.475 83.6452 11.475C85.8017 11.475 87.4736 11.9294 88.7644 12.6615C90.8208 9.15655 92.676 2.14662 83.6452 2.14662C74.6144 2.14662 76.6446 9.27143 78.7885 12.8338Z" fill="#6D6D6D"/>
<path d="M83.6452 11.475C83.6641 11.6798 83.6749 11.9025 83.6762 12.1405C83.9571 16.1941 86.0475 23.1684 92.7022 23.1684C93.1138 21.6236 93.4447 15.3163 88.7644 12.6615C87.4736 11.9294 85.8017 11.475 83.6452 11.475Z" fill="#6D6D6D"/>
<path d="M94.2774 99.3723V91.3577H85.3516V98.3212C85.3516 98.9781 86.2704 102 90.077 102C93.1223 102 94.1461 100.248 94.2774 99.3723Z" fill="#6D6D6D"/>
<path d="M73.1443 91.3577V98.3212C73.2318 99.5475 74.3257 102 78.001 102C81.6763 102 82.9451 99.5475 83.1202 98.3212V91.3577H73.1443Z" fill="#6D6D6D"/>
<path d="M39.9348 8.84731H22.7396C22.3611 12.1563 23.0229 16.0291 24.3148 20.759C25.5499 23.5649 27.4556 26.0589 30.8778 26.0589C35.3575 26.0589 38.0464 22.0284 38.6223 20.759C39.359 17.5613 39.9348 12.7244 39.9348 8.84731Z" fill="#EFEFEF"/>
</svg>
