<svg width="167" height="102" viewBox="0 0 167 102" fill="none" xmlns="http://www.w3.org/2000/svg">
<path fill-rule="evenodd" clip-rule="evenodd" d="M127.798 76.0356V0H56.7476V76.0356H65.2147H74.5101H92.2726H111.416H127.798ZM80.8604 24.303H66.3191V6.3042H80.8604V24.303ZM99.2671 24.303H84.7258V6.3042H99.2671V24.303ZM117.674 24.303H103.133V6.3042H117.674V24.303ZM80.8604 45.9749H66.3191V27.9762H80.8604V45.9749ZM99.2671 45.9749H84.7258V27.9762H99.2671V45.9749ZM117.674 45.9749H103.133V27.9762H117.674V45.9749Z" fill="#D1D1D1"/>
<path d="M103.133 24.303H117.674V6.3042H103.133V24.303Z" fill="#EFEFEF"/>
<path d="M84.7258 24.303H99.2671V6.3042H84.7258V24.303Z" fill="#EFEFEF"/>
<path d="M66.3191 24.303H80.8604V6.3042H66.3191V24.303Z" fill="#EFEFEF"/>
<path d="M66.3191 45.9749H80.8604V27.9762H66.3191V45.9749Z" fill="#EFEFEF"/>
<path d="M84.7258 45.9749H99.2671V27.9762H84.7258V45.9749Z" fill="#EFEFEF"/>
<path d="M103.133 45.9749H117.674V27.9762H103.133V45.9749Z" fill="#EFEFEF"/>
<path d="M66.3191 68.0142H80.8604V50.0155H66.3191V68.0142Z" fill="#EFEFEF"/>
<path d="M84.7258 68.0142H99.2671V50.0155H84.7258V68.0142Z" fill="#EFEFEF"/>
<path d="M103.133 68.0142H117.674V50.0155H103.133V68.0142Z" fill="#EFEFEF"/>
<path d="M84.9099 76.0356H74.5101H65.2147H56.7476H0V78H167V76.0356H136.889H127.798H121.907H111.416H104.053H92.2726H84.9099Z" fill="#D1D1D1"/>
<path d="M26.7099 12.6949C29.1195 12.8575 30.0661 17.177 30.2383 19.3165C33.0781 14.9021 32.8486 14.0018 31.9881 11.1266C31.2996 8.82646 28.4502 7.82548 27.1115 7.6125C26.2988 6.5089 23.807 4.3772 20.3418 4.67924C16.0103 5.05679 11.5045 10.3425 11.2772 12.0269C10.7204 16.151 14.2796 17.2448 14.6047 19.3165C14.423 18.1161 15.3161 15.5526 20.3418 14.9021C26.6239 14.0889 23.698 12.4916 26.7099 12.6949Z" fill="#6D6D6D"/>
<path d="M14.6047 19.3165C14.7385 23.6438 16.4578 32.2983 22.2637 32.2983C24.5214 32.2983 26.193 30.9896 27.4069 29.1356C29.3147 26.2218 30.0922 21.961 30.2383 19.3165C30.0661 17.177 29.1195 12.8575 26.7099 12.6949C23.698 12.4916 26.6239 14.0889 20.3418 14.9021C15.3161 15.5526 14.423 18.1161 14.6047 19.3165Z" fill="#EFEFEF"/>
<path d="M33.4766 60.1791H11.2166V101.303C11.5226 100.219 12.9377 98.0502 16.1505 98.0502C19.3633 98.0502 20.855 100.219 21.1992 101.303L22.2319 63.1995L23.2645 101.419C23.6088 100.335 25.1004 98.1664 28.3132 98.1664C31.526 98.1664 32.9412 100.335 33.2471 101.419L33.4766 60.1791Z" fill="#6D6D6D"/>
<path d="M33.2471 101.419C32.9412 100.335 31.526 98.1664 28.3132 98.1664C25.1004 98.1664 23.6088 100.335 23.2645 101.419H33.2471Z" fill="#2A2827"/>
<path d="M16.1505 98.0502C12.9377 98.0502 11.5226 100.219 11.2166 101.303H21.1992C20.855 100.219 19.3633 98.0502 16.1505 98.0502Z" fill="#2A2827"/>
<path d="M33.2471 101.419H23.2645V102H33.2471V101.419Z" fill="#F05634"/>
<path d="M21.1992 101.303H11.2166V101.884H21.1992V101.303Z" fill="#F05634"/>
<path d="M22.2637 32.2983C19.7516 32.2983 18.0046 30.6781 16.82 28.4893L15.0032 28.2326C12.7858 27.8841 9.19724 28.674 7.08598 32.2985C4.4469 36.8291 2.49628 41.0112 2.15205 48.446C1.87667 54.3939 2.03731 61.7668 2.15205 64.7097C2.26676 65.7552 3.02399 67.8463 5.13525 67.8463C7.24651 67.8463 8.1568 65.7552 8.34803 64.7097C8.27154 60.0242 8.34803 50.2931 8.34803 48.7945C8.34803 45.8903 10.3369 41.3597 11.2166 38.5716V60.1791H33.4766V34.041C36.5747 32.7245 43.7902 28.5247 46.2687 21.7405C48.7471 14.9562 49.0959 9.37193 48.9811 7.55195V2.97501C48.9811 0.915388 47.7605 0 45.5906 0C43.4206 0 42.6521 2.05962 42.6521 2.97501V4.80579L42.4265 8.01915C42.197 10.8847 41.2562 17.2894 39.3285 19.9846C36.9189 23.3535 33.7836 25.4445 29.0792 28.2326L27.4069 29.1356C26.193 30.9896 24.5214 32.2983 22.2637 32.2983Z" fill="#F05634"/>
<path d="M141.792 70.6981V76H142.053H142.315V70.699H142.053L141.792 70.6981Z" fill="#6D6D6D"/>
<path d="M135.012 64.0363C135.012 69.4387 139.633 70.7321 142.005 70.7146C144.377 70.7321 148.988 69.4387 148.988 64.0363C149.075 62.9004 148.727 60.4014 146.637 59.4926C147.246 57.936 147.708 54.6713 144.678 54.0655C144.764 52.7315 144.346 50.0757 142 50.0273C139.654 50.0757 139.236 52.7315 139.322 54.0655C136.292 54.6713 136.754 57.936 137.363 59.4926C135.273 60.4014 134.925 62.9004 135.012 64.0363Z" fill="#F05634"/>
<path d="M158.792 70.6981V76H159.053H159.315V70.699H159.053L158.792 70.6981Z" fill="#6D6D6D"/>
<path d="M152.012 64.0363C152.012 69.4387 156.633 70.7321 159.005 70.7146C161.377 70.7321 165.988 69.4387 165.988 64.0363C166.075 62.9004 165.727 60.4014 163.637 59.4926C164.246 57.936 164.708 54.6713 161.678 54.0655C161.764 52.7315 161.346 50.0757 159 50.0273C156.654 50.0757 156.236 52.7315 156.322 54.0655C153.292 54.6713 153.754 57.936 154.363 59.4926C152.273 60.4014 151.925 62.9004 152.012 64.0363Z" fill="#F05634"/>
</svg>
