<svg width="174" height="104" viewBox="0 0 174 104" fill="none" xmlns="http://www.w3.org/2000/svg">
<path d="M125.644 50.8236V60H126.091H126.539V50.8252H126.091L125.644 50.8236Z" fill="#6D6D6D"/>
<path d="M114.021 39.2937C114.021 48.644 121.943 50.8824 126.009 50.8522C130.074 50.8824 137.979 48.644 137.979 39.2937C138.129 37.3276 137.532 33.0024 133.949 31.4296C134.994 28.7354 135.785 23.0849 130.59 22.0364C130.738 19.7275 130.021 15.131 126 15.0472C121.979 15.131 121.262 19.7275 121.41 22.0364C116.215 23.0849 117.006 28.7354 118.051 31.4296C114.468 33.0024 113.871 37.3276 114.021 39.2937Z" fill="#F05634"/>
<path d="M154.644 50.8236V60H155.091H155.539V50.8252H155.091L154.644 50.8236Z" fill="#6D6D6D"/>
<path d="M143.021 39.2937C143.021 48.644 150.943 50.8824 155.009 50.8522C159.074 50.8824 166.979 48.644 166.979 39.2937C167.129 37.3276 166.532 33.0024 162.949 31.4296C163.994 28.7354 164.785 23.0849 159.59 22.0364C159.738 19.7275 159.021 15.131 155 15.0472C150.979 15.131 150.262 19.7275 150.41 22.0364C145.215 23.0849 146.006 28.7354 147.051 31.4296C143.468 33.0024 142.871 37.3276 143.021 39.2937Z" fill="#F05634"/>
<path d="M42.0793 50.4076V58.879H43.81V50.4076H42.0793Z" fill="#D1D1D1"/>
<path d="M100.426 58.879V50.4076H98.9428H98.6956V58.879H100.426Z" fill="#D1D1D1"/>
<path d="M100.426 41.9363V33.8885H98.6956V41.9363H100.426Z" fill="#D1D1D1"/>
<path d="M100.426 25.8408H98.6956V33.8885H100.426V25.8408Z" fill="#D1D1D1"/>
<path d="M100.426 25.8408V21.121H98.6956V25.8408H100.426Z" fill="#D1D1D1"/>
<path d="M42.0793 33.8885V41.9363H43.81V33.8885H42.0793Z" fill="#D1D1D1"/>
<path d="M42.0793 25.8408V33.8885H43.81V25.8408H42.0793Z" fill="#D1D1D1"/>
<path d="M42.0793 21.121V25.8408H43.81V21.121H42.0793Z" fill="#D1D1D1"/>
<path d="M105 50.4076V41.9363H100.426H98.6956H43.81H42.0793H38V50.4076H42.0793H43.81H98.6956H98.9428H100.426H105Z" fill="#F05634"/>
<path d="M98.6956 33.8885V25.8408H43.81V33.8885H98.6956Z" fill="#D1D1D1"/>
<path d="M17.6016 4.13174H26.4016L24.8016 2.36842H19.2016L17.6016 4.13174Z" fill="#F05634"/>
<path d="M19.2016 7.10526H20.8008L20.8016 14.2105L19.2016 7.10526Z" fill="#F05634"/>
<path d="M22.4016 7.10526H24.0016L22.4016 14.2105V7.10526Z" fill="#F05634"/>
<path fill-rule="evenodd" clip-rule="evenodd" d="M22.4008 60V16.8862H24.0008L27.2 6.82635H28V4.13174H27.2L26.4016 0H21.7487H21.6577H17.6016L16.8 4.13174H16.0009L16 6.82635H16.8L19.2008 16.8862H20.8008V60H22.4008ZM20.8008 7.10526H19.2016L20.8016 14.2105L20.8008 7.10526ZM24.0016 7.10526H22.4016V14.2105L24.0016 7.10526ZM26.4016 4.13174H17.6016L19.2016 2.36842H24.8016L26.4016 4.13174Z" fill="#EFEFEF"/>
<path d="M174 60H0V61.1646H174L174 60Z" fill="#EFEFEF"/>
<path d="M174 61.1646H0L0.000221789 80.963H174V61.1646Z" fill="#6D6D6D"/>
<path d="M174 80.963H0.000221789L0 90.6681C3.13523 90.7974 9.95413 90.2021 13.7162 86.786C15.1531 88.08 19.5162 90.6681 25.4729 90.6681C27.4324 90.6681 32.6837 89.8917 38.0135 86.786C39.581 88.08 43.6567 90.6681 47.4189 90.6681C50.1621 91.0563 56.8243 90.8234 61.5269 86.786C62.572 88.08 66.3864 90.6681 73.2837 90.6681C75.635 90.9269 82.2188 90.5128 89.7431 86.786C91.8332 88.08 98.208 90.6681 106.986 90.6681C109.599 91.0563 116.705 90.8234 124.23 86.786C127.103 88.08 134.576 90.6681 141.473 90.6681C144.347 90.7975 151.662 90.2022 157.932 86.786C160.284 88.08 166.475 90.6681 174 90.6681L174 80.963Z" fill="#EFEFEF"/>
<path d="M25.4729 90.6681C19.5162 90.6681 15.1531 88.08 13.7162 86.786C9.95413 90.2021 3.13523 90.7974 0 90.6681V97.2675C3.13513 97.3969 9.95404 96.8017 13.7162 93.3855C15.1531 94.6795 19.5162 97.2675 25.4729 97.2675C27.4324 97.2675 32.6837 96.4911 38.0135 93.3855C39.581 94.6795 43.6567 97.2675 47.4189 97.2675C50.1621 97.6557 56.8243 97.4228 61.5269 93.3855C62.572 94.6795 66.3864 97.2675 73.2837 97.2675C75.635 97.5263 82.2188 97.1122 89.7431 93.3855C91.8332 94.6795 98.208 97.2675 106.986 97.2675C109.599 97.6557 116.705 97.4228 124.23 93.3855C127.103 94.6795 134.576 97.2675 141.473 97.2675C144.347 97.3969 151.662 96.8017 157.932 93.3855C160.284 94.6795 166.475 97.2675 174 97.2675V90.6681C166.475 90.6681 160.284 88.08 157.932 86.786C151.662 90.2022 144.347 90.7975 141.473 90.6681C134.576 90.6681 127.103 88.08 124.23 86.786C116.705 90.8234 109.599 91.0563 106.986 90.6681C98.208 90.6681 91.8332 88.08 89.7431 86.786C82.2188 90.5128 75.635 90.9269 73.2837 90.6681C66.3864 90.6681 62.572 88.08 61.5269 86.786C56.8243 90.8234 50.1621 91.0563 47.4189 90.6681C43.6567 90.6681 39.581 88.08 38.0135 86.786C32.6837 89.8917 27.4324 90.6681 25.4729 90.6681Z" fill="#D1D1D1"/>
<path d="M13.7162 93.3855C9.95404 96.8017 3.13513 97.3969 0 97.2675V103.867H1.70207C5.17949 103.743 10.5383 102.871 13.7162 99.985C15.1531 101.279 19.5162 103.867 25.4729 103.867C27.4324 103.867 32.6837 103.091 38.0135 99.985C39.581 101.279 43.6567 103.867 47.4189 103.867H51.9106C54.9337 103.531 58.6078 102.491 61.5269 99.985C62.572 101.279 66.3864 103.867 73.2837 103.867H76.1982C79.4122 103.631 84.3347 102.664 89.7431 99.985C91.8332 101.279 98.208 103.867 106.986 103.867H111.676C115.049 103.531 119.559 102.491 124.23 99.985C127.103 101.279 134.576 103.867 141.473 103.867H143.113C146.594 103.743 152.636 102.871 157.932 99.985C160.284 101.279 166.475 103.867 174 103.867V97.2675C166.475 97.2675 160.284 94.6795 157.932 93.3855C151.662 96.8017 144.347 97.3969 141.473 97.2675C134.576 97.2675 127.103 94.6795 124.23 93.3855C116.705 97.4228 109.599 97.6557 106.986 97.2675C98.208 97.2675 91.8332 94.6795 89.7431 93.3855C82.2188 97.1122 75.635 97.5263 73.2837 97.2675C66.3864 97.2675 62.572 94.6795 61.5269 93.3855C56.8243 97.4228 50.1621 97.6557 47.4189 97.2675C43.6567 97.2675 39.581 94.6795 38.0135 93.3855C32.6837 96.4911 27.4324 97.2675 25.4729 97.2675C19.5162 97.2675 15.1531 94.6795 13.7162 93.3855Z" fill="#EFEFEF"/>
<path d="M174 103.867C166.475 103.867 160.284 101.279 157.932 99.985C152.636 102.871 146.594 103.743 143.113 103.867H174Z" fill="#D1D1D1"/>
<path d="M141.473 103.867C134.576 103.867 127.103 101.279 124.23 99.985C119.559 102.491 115.049 103.531 111.676 103.867H141.473Z" fill="#D1D1D1"/>
<path d="M106.986 103.867C98.208 103.867 91.8332 101.279 89.7431 99.985C84.3347 102.664 79.4122 103.631 76.1982 103.867H106.986Z" fill="#D1D1D1"/>
<path d="M73.2837 103.867C66.3864 103.867 62.572 101.279 61.5269 99.985C58.6078 102.491 54.9337 103.531 51.9106 103.867H73.2837Z" fill="#D1D1D1"/>
<path d="M38.0135 99.985C32.6837 103.091 27.4324 103.867 25.4729 103.867H47.4189C43.6567 103.867 39.581 101.279 38.0135 99.985Z" fill="#D1D1D1"/>
<path d="M25.4729 103.867C19.5162 103.867 15.1531 101.279 13.7162 99.985C10.5383 102.871 5.17949 103.743 1.70207 103.867H25.4729Z" fill="#D1D1D1"/>
</svg>
