<svg width="157" height="102" viewBox="0 0 157 102" fill="none" xmlns="http://www.w3.org/2000/svg">
<path d="M157 92H0V70H157V92Z" fill="#EFEFEF"/>
<path d="M31.5402 14.5897L32.1839 12.4198C32.7091 11.2958 35.3329 9.54283 36.2069 10.093C36.3678 9.63633 36.3517 8.56226 35 7.91932C33.3103 7.11566 31.5402 6.22784 29.2069 8.16042C28.4559 8.08006 26.9701 8.49797 27.0345 10.8125C27.0821 12.5259 28.1027 14.1688 28.9996 15.2327C29.3143 15.606 29.6137 15.908 29.8506 16.1167L31.5402 14.5897Z" fill="#6D6D6D"/>
<path d="M32.6666 17.5633L33.069 17.1615H35.2414C35.6973 17.1347 36.6414 16.7918 36.7701 15.6345C36.931 14.1879 37.0115 11.2143 36.3678 10.2499C36.3243 10.1848 36.2702 10.1329 36.2069 10.093C35.3329 9.54283 32.7091 11.2958 32.1839 12.4198L31.5402 14.5897L29.8506 16.1167L32.6666 17.5633Z" fill="#EFEFEF"/>
<path d="M31.3793 37.9764L38.4598 42.3966L41.1954 44.3254L43.3678 40.95L35.2414 34.601C34.4368 32.1632 32.6828 26.8858 32.1034 25.2785C31.3793 23.2693 30.0115 22.4657 28.1609 23.0282C26.6805 23.4783 26.8467 25.8411 27.1149 26.9662L31.3793 37.9764Z" fill="#F05634"/>
<path d="M34.8391 18.9295L32.6666 17.5633L29.8506 16.1167C29.6137 15.908 29.3143 15.606 28.9996 15.2327L28.2414 18.9295C25.2805 19.7011 24.2184 25.3589 24.0575 28.0913C24.0575 33.717 24.2667 45.2898 25.1034 46.5756C25.816 47.6706 31.5695 47.8705 35.2414 47.7087C36.9595 47.6331 38.2219 47.4783 38.2989 47.2989C38.492 46.8489 38.4866 43.8432 38.4598 42.3966L31.3793 37.9764L27.1149 26.9662C26.8467 25.8411 26.6805 23.4783 28.1609 23.0282C30.0115 22.4657 31.3793 23.2693 32.1034 25.2785C32.6828 26.8858 34.4368 32.1632 35.2414 34.601L38.3754 37.0496C38.1823 31.7775 35.4291 23.6712 34.0345 20.5369L34.8391 18.9295Z" fill="#F05634"/>
<path d="M35.2414 47.7087C31.5695 47.8705 25.816 47.6706 25.1034 46.5756L22.6092 62.1667L10.2184 77.4364L14 80.3296L28.3218 65.7832L32.1677 55.7374L35.2414 47.7087Z" fill="#6D6D6D"/>
<path d="M38.2989 47.2989C38.2219 47.4783 36.9595 47.6331 35.2414 47.7087L32.1677 55.7374L36.046 64.0152L39.6667 82.4995H44.2529L42.2414 62.1667L38.2989 47.2989Z" fill="#6D6D6D"/>
<path d="M44.2529 82.4995H39.6667V87H47.4062C47.9805 87 48.2601 86.2986 47.8433 85.9034L44.2529 82.4995Z" fill="#6D6D6D"/>
<path d="M14 80.3296L10.2184 77.4364L7 80.7314L13.5254 86.0271C13.966 86.3847 14.6188 86.0293 14.5575 85.4652L14 80.3296Z" fill="#6D6D6D"/>
<path d="M43.3678 40.95L41.1954 44.3254L44.0115 46.1738C44.4406 46.281 45.4276 46.3345 45.9425 45.6916C46.5862 44.8879 46.6667 43.9235 46.1839 43.4413C45.7977 43.0556 44.1456 41.6197 43.3678 40.95Z" fill="#EFEFEF"/>
<path d="M74.8714 2.63339C73.9186 1.25662 70.9015 -1.08388 66.4554 0.568238C62.0092 2.22036 61.2152 5.70464 61.374 7.24027L66.773 5.39748L69.6313 4.42191L74.8714 2.63339Z" fill="#6D6D6D"/>
<path d="M61.374 7.24027C61.8504 10.4704 64.0417 20.3302 66.4554 20.5843C67.2347 20.6664 68.3956 20.0276 69.6313 18.9008L66.773 5.39748L61.374 7.24027Z" fill="#EFEFEF"/>
<path d="M74.8714 2.63339L69.6313 4.42191L72.1744 15.9774C73.3817 14.2739 74.4514 12.2346 75.067 10.0997C75.7836 7.61417 75.8848 4.99906 74.8714 2.63339Z" fill="#EFEFEF"/>
<path d="M66.773 5.39748L69.6313 18.9008C70.4767 18.1299 71.3571 17.1306 72.1744 15.9774L69.6313 4.42191L66.773 5.39748Z" fill="#6D6D6D"/>
<path d="M75.067 10.0997C74.4514 12.2346 73.3817 14.2739 72.1744 15.9774L76.4874 19.9489L76.6182 17.7249C77.9944 16.0304 81.7948 13.7852 85.9869 18.3603V27.2563C87.6384 26.8751 92.074 28.5802 94.0853 29.4803L85.3518 43.9364L96.1496 48.3844L101.867 42.5435L103.613 40.7593C104.072 40.2702 104.51 39.7937 104.928 39.3295C113.412 29.9029 113.458 28.5944 112.505 24.5558C107.265 9.53147 83.7883 8.40521 75.067 10.0997Z" fill="#F05634"/>
<path d="M85.9869 18.3603C81.7948 13.7852 77.9944 16.0304 76.6182 17.7249L76.4874 19.9489L76.2165 24.5558C78.4712 24.4003 83.5103 24.7621 85.9869 27.3978V27.2563V18.3603Z" fill="#F05634"/>
<path d="M73.2835 47.4313L85.9869 32.8164V27.4152V27.3978C83.5103 24.7621 78.4712 24.4003 76.2165 24.5558L76.1231 26.1443L75.983 28.5272C73.2835 31.8632 67.7258 39.0118 67.0906 40.9181C66.7646 41.8965 66.4119 43.0891 66.2851 44.2541C66.1032 45.9264 66.3871 47.5417 67.8846 48.3844C69.9171 49.5282 72.3308 48.2256 73.2835 47.4313Z" fill="#EFEFEF"/>
<path d="M96.1496 48.3844L85.3518 43.9364L85.8751 49.3376L86.1984 52.6736L88.0609 71.8954L88.3688 75.0725L88.0154 76.0257L85.2516 83.4788C85.0546 84.0103 85.5992 84.5142 86.1138 84.2767L88.8455 83.0154L91.7038 81.6367L97.7376 78.7263L97.5463 75.0725L97.3801 71.8954L96.3741 52.6736L96.1995 49.3376L96.1496 48.3844Z" fill="#6D6D6D"/>
<path d="M63.4384 46.3193L60.7389 44.0953L54.3092 59.0279L52.8727 62.3639L47.4006 75.0725C45.8126 74.9666 42.5415 75.6127 42.1604 79.044C41.7119 83.0826 44.0774 84.9077 46.6067 85.1478C48.9887 85.3739 51.0529 85.1478 52.1645 81.9706C52.7576 80.2751 53.276 78.4758 50.4177 76.0257L55.8216 63.4759L57.2457 60.1685L59.3101 55.3742L88.0154 76.0257L88.3688 75.0725L88.0609 71.8954L62.0096 52.6736H86.1984L85.8751 49.3376H67.0906H62.0096L63.4384 46.3193Z" fill="#D1D1D1"/>
<path fill-rule="evenodd" clip-rule="evenodd" d="M106.154 49.3376H96.1995L96.3741 52.6736H105.519L97.3801 71.8954L97.5463 75.0725C98.9335 75.6021 101.612 77.3601 101.231 80.156C100.755 83.6509 97.4203 84.9217 95.8324 84.9217C94.2445 84.9217 91.7038 83.7529 91.7038 81.6367L88.8455 83.0154C88.8455 85.8191 92.4978 88.5755 95.1972 88.2577L109.33 86.9176L112.664 86.6014L128.702 85.0806C131.243 84.9217 134.895 84.4452 134.895 79.9971C134.895 75.5491 130.237 74.4371 127.908 74.4371L120.128 64.1498L117.936 61.2519L109.886 50.6084V42.5435H106.154V49.3376ZM101.231 71.8954L108.377 54.5799L115.205 63.3522L117.403 66.1765L123.462 73.9605L112.347 72.928L109.012 72.6182L101.231 71.8954ZM103.296 84.1274C105.836 79.9336 104.354 76.6611 103.296 75.5491L108.377 76.028L111.553 76.3273L125.209 77.6143C124.32 79.7747 124.838 81.5857 125.209 82.2211L111.87 83.4004L108.536 83.7181L103.296 84.1274Z" fill="#D1D1D1"/>
<path d="M103.613 40.7593L101.867 42.5435H106.154H109.886H113.617C114.041 42.4783 114.887 42.0301 114.887 40.7593C114.887 39.4884 114.041 39.2766 113.617 39.3295H104.928C104.51 39.7937 104.072 40.2702 103.613 40.7593Z" fill="#2A2827"/>
<path d="M67.0906 49.3376L67.8846 48.3844C66.3871 47.5417 66.1032 45.9264 66.2851 44.2541L57.2457 38.0587C56.3458 37.5821 54.4191 37.0102 53.9109 38.5352C53.2757 40.4415 55.0225 44.413 55.1813 44.5718C55.34 44.7307 57.5631 46.1604 58.3571 45.525C59.1511 44.8896 58.0394 42.8244 57.7219 42.3478C57.4678 41.9666 57.8277 41.8713 58.0394 41.8713L60.7389 44.0953L63.4384 46.3193L67.0906 49.3376Z" fill="#2A2827"/>
<path d="M120.128 64.1498C126.797 60.3244 144.582 59.0951 148.551 76.0257C149.663 83.4004 146.487 97.7892 130.608 98.4246C126.056 98.6972 116.094 96.7141 112.664 86.6014L109.33 86.9176C114.411 99.6039 122.036 102.214 130.608 101.987C148.551 101.51 153.633 86.6014 151.569 75.5491C145.217 54.6471 126.13 56.698 117.936 61.2519L120.128 64.1498Z" fill="#2A2827"/>
<path d="M108.377 76.028C107.869 78.5716 108.324 82.2254 108.536 83.7181L111.87 83.4004C111.712 82.1827 111.172 79.0704 111.553 76.3273L108.377 76.028Z" fill="#2A2827"/>
<path d="M115.205 63.3522C111.521 67.1929 109.541 71.1298 109.012 72.6182L112.347 72.928C112.86 71.7365 114.589 68.7182 117.403 66.1765L115.205 63.3522Z" fill="#2A2827"/>
<path d="M28.3456 79.9971C30.5052 60.9342 45.5968 60.2988 52.8727 62.3639L54.3092 59.0279C45.4958 56.3803 27.2976 56.8992 25.0109 80.156C24.6933 89.1192 31.2356 104.239 51.6881 101.443C58.3574 100.066 71.029 92.7693 68.3613 74.596C67.9378 71.6497 65.1218 64.6395 57.2457 60.1685L55.8216 63.4759C61.9231 66.3989 64.5006 72.1072 65.0267 74.596C67.9484 89.9734 57.3517 96.5713 51.6881 97.9481C33.7763 100.998 28.3456 88.4838 28.3456 79.9971Z" fill="#2A2827"/>
</svg>
