<svg width="97" height="102" viewBox="0 0 97 102" fill="none" xmlns="http://www.w3.org/2000/svg">
<path d="M47.6811 60H53.7217H59.1208H64.0388H97V61H0V60H17.4896H22.7703H26.1915H32.2856H36.5621H43.4046H47.6811Z" fill="#D1D1D1"/>
<path d="M59.2506 7.32604C59.1749 8.72119 59.0711 12.0232 59.2138 14.7491C57.8008 12.9237 55.5123 8.37256 57.6625 4.77057C59.8126 1.16858 62.9563 0.105829 64.2594 0.0247035C66.0105 -0.178111 70.8076 0.779175 75.9874 6.23084C77.4127 7.65054 81.8514 10.2952 88.204 9.51644C87.919 14.384 83.7788 25.0679 75.5692 27.9884C75.1897 27.852 74.799 27.6632 74.3992 27.4278C72.9773 26.5903 71.4421 25.1638 69.8995 23.4155C68.7019 22.0582 67.4999 20.5068 66.343 18.8865C63.4292 14.8056 60.8014 10.2867 59.2506 7.32604Z" fill="#6D6D6D"/>
<path d="M63.0378 18.8865C61.8568 18.8865 59.4461 18.1807 59.2506 15.3575C59.2369 15.1587 59.2246 14.9555 59.2138 14.7491C59.0711 12.0232 59.1749 8.72119 59.2506 7.32604C60.8014 10.2867 63.4292 14.8056 66.343 18.8865H65.2368H64.9924H63.0378Z" fill="#EFEFEF"/>
<path d="M64.3816 33.7325H74.3992C74.3992 38.9895 72.6889 42.0885 71.8338 42.9809L57.5403 55.1498C56.4815 55.961 54.0463 57.2672 52.7758 56.0016C52.6164 55.8428 52.3923 55.655 52.2872 55.4901C51.8285 54.7707 51.8668 54.0159 52.0428 53.4214C52.148 53.0664 52.385 52.7933 52.5315 52.5943L64.5038 36.8964L64.3816 33.7325Z" fill="#EFEFEF"/>
<path d="M64.3816 33.7325L64.5038 30.812V26.9179C64.8296 25.7416 66.5765 23.4155 69.8995 23.4155C71.4421 25.1638 72.9773 26.5903 74.3992 27.4278V33.7325H64.3816Z" fill="#F05634"/>
<path d="M64.5038 30.812L64.3816 33.7325L64.5038 36.8964C63.16 36.1257 60.4723 34.0976 60.4723 32.1506C60.4723 30.2035 62.1826 27.6033 63.0378 26.5466C63.6795 28.5643 64.3245 30.5144 64.5038 30.812Z" fill="#F05634"/>
<path d="M69.8995 23.4155C66.5765 23.4155 64.8296 25.7416 64.5038 26.9179V30.812C64.3245 30.5144 63.6795 28.5643 63.0378 26.5466C62.6298 25.264 62.2232 23.954 61.9383 23.0239C62.8231 22.9272 63.9783 22.8407 65.2368 22.8039V21.0769V18.8865H66.343C67.4999 20.5068 68.7019 22.0582 69.8995 23.4155Z" fill="#F05634"/>
<path d="M75.5692 27.9884C78.5419 38.4131 85.3698 57.3402 93.0907 63.668C91.4023 64.7852 88.9513 66.1875 86.005 67.5706C83.0367 68.964 79.5656 70.3379 75.8652 71.3811C73.6864 71.9953 71.4281 72.4949 69.1461 72.8164C65.8824 73.2761 62.5702 73.3713 59.3728 72.9164C61.4089 66.3857 65.1244 52.4597 64.2448 49.4418L71.8338 42.9809C72.6889 42.0885 74.3992 38.9895 74.3992 33.7325V27.4278C74.799 27.6632 75.1897 27.852 75.5692 27.9884Z" fill="#F05634"/>
<path d="M15.3929 75.8369H11.6058V69.9958V68.9006L12.0945 68.0488H16.4924L17.1033 68.9006L15.873 73.8899L15.3929 75.8369Z" fill="#6D6D6D"/>
<path d="M17.1033 76.8104C16.3296 78.3923 13.6826 81.7996 9.28464 82.7732L7.69647 79.7309H0V73.8899L5.86398 72.0645L7.69647 69.9958H11.6058V75.8369H15.3929L15.873 73.8899C15.9573 74.5389 16.3214 76.0316 17.1033 76.8104Z" fill="#D1D1D1"/>
<path d="M10.1398 84.4768C12.6646 83.625 17.8363 81.1425 18.3249 78.0273C18.5737 78.232 19.0265 78.4877 19.7039 78.7491C19.7108 78.7518 19.7177 78.7544 19.7246 78.7571C19.7249 78.7572 19.7252 78.7573 19.7255 78.7574C21.6042 79.4778 25.1882 80.2384 30.9081 80.096C31.4019 80.055 32.2013 80.2232 32.9849 80.8642C33.7522 81.4919 34.5044 82.573 34.9395 84.3551L35.0617 87.7624C35.5911 88.5737 36.6499 90.3179 36.6499 90.8046C36.6499 91.2914 35.6725 98.471 35.1839 102H31.2746V93.2384L29.3199 91.2914C27.8132 92.1432 23.7491 93.3357 19.5466 91.2914L19.4244 95.4288L15.6373 102H11.728L13.5605 93.2384C13.0608 92.8975 12.4115 92.3196 11.7881 91.5348C11.0023 90.5453 10.2578 89.2271 9.90638 87.6407C9.69606 86.6912 9.62656 85.6456 9.7733 84.517C9.91706 84.5226 10.0473 84.5031 10.1398 84.4768Z" fill="#D1D1D1"/>
<path fill-rule="evenodd" clip-rule="evenodd" d="M63.0378 18.8865H64.9924H65.2368V21.0769L63.0378 18.8865ZM11.7881 91.5348C11.0023 90.5453 10.2578 89.2271 9.90638 87.6407L5.86398 91.2914L4.15366 97.1324H7.81864C7.81864 96.743 10.465 93.2384 11.7881 91.5348ZM38.6045 81.5563C38.4091 81.8483 36.0798 83.5438 34.9395 84.3551C34.5044 82.573 33.7522 81.4919 32.9849 80.8642C33.6772 80.527 35.0617 79.6092 35.0617 78.6357V73.8899C36.2427 74.9039 38.6534 77.1755 38.8489 78.149C39.0932 79.3659 38.8489 81.1912 38.6045 81.5563ZM86.005 67.5706C83.0367 68.964 79.5656 70.3379 75.8652 71.3811C75.6616 72.5418 76.4516 76.3723 81.2406 82.4081C86.0295 88.4439 89.5886 92.7922 90.7695 94.2119L93.8237 101.757L97 92.0215L86.6159 74.0116L86.005 67.5706ZM69.1461 72.8164C65.8824 73.2761 62.5702 73.3713 59.3728 72.9164L56.1965 95.4288L48.5 101.757H62.427L69.1461 72.8164Z" fill="#6D6D6D"/>
<path d="M9.28464 82.7732C13.6826 81.7996 16.3296 78.3923 17.1033 76.8104C17.1847 76.7698 17.4698 76.7374 17.9584 76.9321C18.4471 77.1268 18.4064 77.7433 18.3249 78.0273C17.8363 81.1425 12.6646 83.625 10.1398 84.4768C10.0473 84.5031 9.91706 84.5226 9.7733 84.517C9.47404 84.5052 9.11619 84.3846 8.91814 83.99C8.62494 83.4059 9.04031 82.9354 9.28464 82.7732Z" fill="#2A2827"/>
<path d="M52.2872 55.4901C45.8625 62.2236 29.792 76.421 19.7255 78.7574L19.7246 78.7571L19.7039 78.7491C19.0265 78.4877 18.5737 78.232 18.3249 78.0273C18.36 77.905 18.3875 77.7211 18.3685 77.5357C28.435 76.2701 45.1352 60.885 52.0428 53.4214C51.8668 54.0159 51.8285 54.7707 52.2872 55.4901Z" fill="#6D6D6D"/>
<path d="M34.1782 55.3098V60H33.9543H33.7304V55.3107H33.9543L34.1782 55.3098Z" fill="#6D6D6D"/>
<path d="M39.9897 49.4168C39.9897 54.1958 36.0285 55.3399 33.9956 55.3245C31.9628 55.3399 28.0103 54.1958 28.0103 49.4168C27.9356 48.4119 28.2342 46.2012 30.0255 45.3973C29.503 44.0203 29.1075 41.1323 31.7049 40.5964C31.6309 39.4163 31.9893 37.0669 34 37.0241C36.0107 37.0669 36.3691 39.4163 36.2951 40.5964C38.8925 41.1323 38.497 44.0203 37.9745 45.3973C39.7658 46.2012 40.0644 48.4119 39.9897 49.4168Z" fill="#F05634"/>
<path d="M6.17821 55.3098V60H5.9543H5.73038V55.3107H5.9543L6.17821 55.3098Z" fill="#6D6D6D"/>
<path d="M11.9897 49.4168C11.9897 54.1958 8.02852 55.3399 5.99564 55.3245C3.96276 55.3399 0.0102777 54.1958 0.0102777 49.4168C-0.0643606 48.4119 0.234193 46.2012 2.02551 45.3973C1.50305 44.0203 1.10747 41.1323 3.70488 40.5964C3.63092 39.4163 3.98933 37.0669 6.00001 37.0241C8.01068 37.0669 8.36909 39.4163 8.29513 40.5964C10.8925 41.1323 10.497 44.0203 9.9745 45.3973C11.7658 46.2012 12.0644 48.4119 11.9897 49.4168Z" fill="#F05634"/>
</svg>
