<svg width="143" height="18" viewBox="0 0 143 18" fill="none" xmlns="http://www.w3.org/2000/svg">
<path d="M4.74259 0C5.24648 0 5.68723 0.0245705 6.06605 0.0700283C6.44245 0.116714 6.7982 0.179373 7.13089 0.26046C7.46236 0.341545 7.79383 0.436148 8.12045 0.544262C8.4507 0.653606 8.81496 0.772779 9.2205 0.904238L9.17436 2.12177C8.88538 2.02102 8.59155 1.92396 8.29286 1.83182C7.99539 1.73845 7.68456 1.65859 7.35915 1.58856C7.03497 1.51853 6.69014 1.46202 6.32346 1.42024C5.95556 1.37724 5.56338 1.35636 5.14327 1.35636C4.95265 1.35636 4.73045 1.38707 4.4779 1.44973C4.22657 1.50993 3.98616 1.61436 3.75668 1.76302C3.52841 1.90922 3.33293 2.10211 3.17266 2.34168C3.01238 2.58249 2.93225 2.8798 2.93225 3.23363C2.93225 3.56658 3.06217 3.95481 3.322 4.39956C3.58062 4.84308 4.0153 5.3984 4.62725 6.06307L6.64279 8.26469C7.08718 8.72787 7.51214 9.18613 7.92011 9.63825C8.32929 10.0904 8.68626 10.5351 8.99223 10.9713C9.29699 11.4074 9.54104 11.8411 9.7256 12.2687C9.90894 12.6987 10 13.1213 10 13.539C10 14.3499 9.85308 15.0391 9.55925 15.6079C9.26542 16.1756 8.88295 16.635 8.41306 16.9864C7.94439 17.3378 7.41136 17.5946 6.8152 17.7567C6.22025 17.9201 5.6253 18 5.02793 18C4.50947 18 4.0238 17.973 3.57334 17.914C3.12287 17.8563 2.69427 17.7715 2.2863 17.6585C1.87591 17.5467 1.48494 17.4078 1.11098 17.242C0.735794 17.0749 0.366683 16.8844 0 16.667L0.149344 15.4163C0.446819 15.5551 0.751578 15.6964 1.06605 15.8401C1.3781 15.9827 1.69621 16.1092 2.02161 16.221C2.3458 16.334 2.67606 16.4237 3.01238 16.495C3.34871 16.5626 3.68504 16.5994 4.02016 16.5994C5.14327 16.5994 5.99077 16.3648 6.56387 15.8967C7.13575 15.4298 7.42229 14.7529 7.42229 13.8634C7.42229 13.5918 7.3628 13.3191 7.24624 13.039C7.12725 12.7625 6.96455 12.4738 6.75814 12.1765C6.55172 11.8792 6.3101 11.572 6.03205 11.2551C5.75158 10.9381 5.45532 10.6064 5.14327 10.2587L3.10345 8.01037C2.58499 7.36782 2.1491 6.81987 1.7982 6.36407C1.4473 5.90826 1.16683 5.50283 0.955561 5.14654C0.746722 4.79025 0.597377 4.46468 0.509956 4.16736C0.421321 3.86881 0.37761 3.55798 0.37761 3.23363C0.37761 2.60829 0.503885 2.08859 0.755221 1.67456C1.00777 1.26176 1.33924 0.931267 1.75206 0.684322C2.16489 0.436148 2.63113 0.26046 3.14959 0.156029C3.66926 0.0528278 4.19985 0 4.74259 0Z" fill="#2A2827"/>
<path d="M16.479 1.12089V11.4101H17.8708C18.7083 11.4101 19.4679 11.3156 20.147 11.1253C20.8261 10.9351 21.4045 10.6297 21.8844 10.2104C22.3632 9.79115 22.7315 9.25554 22.9883 8.60482C23.2451 7.95288 23.3735 7.16159 23.3735 6.23216C23.3735 5.52327 23.3063 4.90406 23.1743 4.37451C23.0435 3.84496 22.8551 3.39055 22.6139 3.01369C22.3728 2.63561 22.0848 2.3254 21.7488 2.08183C21.4117 1.83826 21.0433 1.64438 20.6389 1.49897C20.2358 1.35355 19.8038 1.25419 19.3431 1.20087C18.8823 1.14755 18.406 1.12089 17.9164 1.12089H16.479ZM16.479 12.531V17H14V0H18.2104C19.3959 0 20.411 0.101789 21.2557 0.304157C22.1016 0.505312 22.8107 0.775537 23.3843 1.10999C23.9578 1.44565 24.4174 1.83221 24.7653 2.27087C25.1121 2.70953 25.3773 3.16273 25.5572 3.63048C25.7396 4.09944 25.8572 4.56961 25.9148 5.03614C25.9712 5.50631 26 5.94255 26 6.34607C26 6.74353 25.9676 7.17129 25.9028 7.63176C25.8392 8.09345 25.7108 8.55271 25.5188 9.00955C25.3257 9.4676 25.0533 9.90748 24.7029 10.3304C24.3526 10.7533 23.8882 11.1289 23.3099 11.4561C22.7339 11.7845 22.0272 12.045 21.1945 12.2401C20.3594 12.434 19.3659 12.531 18.2104 12.531H16.479Z" fill="#2A2827"/>
<path d="M29.7364 13.6737H37.9984L33.8279 3.79649L29.7364 13.6737ZM42 17H39.3894L38.4621 14.7946H29.2716L28.3682 17H27L33.1605 2.18483L32.2572 0H34.9014L42 17Z" fill="#2A2827"/>
<path d="M53.6026 0C54.9996 0 56.2944 0.218687 57.4884 0.654835C58.6811 1.09221 59.7384 1.69668 60.6616 2.46946L59.9874 3.32701C59.6183 3.026 59.2084 2.74343 58.7577 2.48174C58.3095 2.21882 57.8344 1.99276 57.3377 1.80233C56.8384 1.61313 56.32 1.46202 55.7837 1.35144C55.2448 1.23964 54.7021 1.18313 54.1568 1.18313C52.9846 1.18313 51.9426 1.38707 51.036 1.79619C50.1281 2.20654 49.3657 2.76677 48.7464 3.4769C48.1284 4.18825 47.6597 5.01877 47.3379 5.96847C47.0161 6.92062 46.8565 7.94034 46.8565 9.0301C46.8565 10.0965 47.0149 11.1003 47.3316 12.0438C47.6482 12.9861 48.1143 13.813 48.7298 14.5231C49.344 15.2345 50.1051 15.7959 51.013 16.21C51.9196 16.6228 52.9591 16.8304 54.1326 16.8304C54.6944 16.8304 55.2652 16.7763 55.8437 16.667C56.4209 16.5601 56.9802 16.4016 57.5165 16.194C58.0554 15.9851 58.5649 15.7296 59.0424 15.4286C59.5187 15.1263 59.9427 14.7823 60.313 14.3966L61 15.2418C60.0525 16.108 58.9505 16.7837 57.6991 17.2714C56.4451 17.7567 55.0788 18 53.6026 18C52.7113 18 51.8558 17.8943 51.036 17.683C50.2175 17.4705 49.4526 17.167 48.74 16.7714C48.03 16.3783 47.3839 15.9089 46.8016 15.3647C46.2193 14.8192 45.7213 14.2147 45.3076 13.5501C44.8939 12.8854 44.5733 12.1728 44.3435 11.4123C44.1149 10.6506 44 9.85571 44 9.0301C44 8.20326 44.1149 7.40223 44.3435 6.63067C44.5733 5.85789 44.8939 5.13794 45.3076 4.46836C45.7213 3.80001 46.2193 3.19186 46.8016 2.64269C47.3839 2.09474 48.03 1.62542 48.74 1.23473C49.4526 0.844038 50.2175 0.540577 51.036 0.325575C51.8558 0.109344 52.7113 0 53.6026 0Z" fill="#2A2827"/>
<path d="M76 0V1.12089H67.6469V6.277H75.7463V7.39668H67.6469V15.8803H76V17H65V0H76Z" fill="#2A2827"/>
<path d="M86.6355 15.8803H94V17H84V0H86.6355V15.8803Z" fill="#2A2827"/>
<path d="M97.7354 13.6737H105.998L101.827 3.79649L97.7354 13.6737ZM110 17H107.39L106.462 14.7946H97.2717L96.3671 17H95L101.161 2.18483L100.256 0H102.902L110 17Z" fill="#2A2827"/>
<path d="M129 17H126.947L116.873 3.79649V17H115.626V2.1606L114 0H117.276L127.74 13.7427V0H129V17Z" fill="#2A2827"/>
<path d="M143 0V1.12089H134.646V6.277H142.746V7.39668H134.646V15.8803H143V17H132V0H143Z" fill="#2A2827"/>
</svg>
