<svg width="20" height="19" viewBox="0 0 20 19" fill="none" xmlns="http://www.w3.org/2000/svg">
<path d="M2.6 18L1.16 16.56L17.024 0.719999L18.464 2.16L2.6 18ZM14.864 18.36C14.072 18.36 13.348 18.168 12.692 17.784C12.044 17.392 11.524 16.872 11.132 16.224C10.74 15.568 10.544 14.84 10.544 14.04C10.544 13.256 10.744 12.536 11.144 11.88C11.544 11.224 12.072 10.7 12.728 10.308C13.384 9.916 14.096 9.72 14.864 9.72C15.656 9.72 16.38 9.916 17.036 10.308C17.692 10.692 18.212 11.212 18.596 11.868C18.988 12.516 19.184 13.24 19.184 14.04C19.184 14.84 18.988 15.568 18.596 16.224C18.212 16.872 17.692 17.392 17.036 17.784C16.38 18.168 15.656 18.36 14.864 18.36ZM14.864 16.476C15.304 16.476 15.708 16.364 16.076 16.14C16.452 15.916 16.748 15.62 16.964 15.252C17.188 14.884 17.3 14.48 17.3 14.04C17.3 13.6 17.188 13.196 16.964 12.828C16.748 12.452 16.452 12.156 16.076 11.94C15.708 11.716 15.304 11.604 14.864 11.604C14.424 11.604 14.02 11.716 13.652 11.94C13.284 12.156 12.988 12.452 12.764 12.828C12.54 13.196 12.428 13.6 12.428 14.04C12.428 14.48 12.54 14.884 12.764 15.252C12.988 15.62 13.284 15.916 13.652 16.14C14.02 16.364 14.424 16.476 14.864 16.476ZM4.76 9C3.968 9 3.244 8.808 2.588 8.424C1.932 8.032 1.408 7.512 1.016 6.864C0.632 6.208 0.44 5.48 0.44 4.68C0.44 3.896 0.64 3.176 1.04 2.52C1.44 1.864 1.968 1.34 2.624 0.947999C3.28 0.555999 3.992 0.36 4.76 0.36C5.552 0.36 6.272 0.555999 6.92 0.947999C7.576 1.332 8.1 1.852 8.492 2.508C8.884 3.156 9.08 3.88 9.08 4.68C9.08 5.48 8.884 6.208 8.492 6.864C8.1 7.512 7.576 8.032 6.92 8.424C6.272 8.808 5.552 9 4.76 9ZM4.76 7.116C5.2 7.116 5.604 7.004 5.972 6.78C6.348 6.556 6.644 6.26 6.86 5.892C7.084 5.524 7.196 5.12 7.196 4.68C7.196 4.24 7.084 3.836 6.86 3.468C6.644 3.092 6.348 2.796 5.972 2.58C5.604 2.356 5.2 2.244 4.76 2.244C4.32 2.244 3.916 2.356 3.548 2.58C3.18 2.796 2.884 3.092 2.66 3.468C2.436 3.836 2.324 4.24 2.324 4.68C2.324 5.12 2.436 5.524 2.66 5.892C2.884 6.26 3.18 6.556 3.548 6.78C3.916 7.004 4.32 7.116 4.76 7.116Z" fill="#2A2827"/>
</svg>
