<svg width="281" height="42" viewBox="0 0 281 42" fill="none" xmlns="http://www.w3.org/2000/svg">
<path d="M39.1337 13.162C38.6177 13.162 38.1437 13.108 37.7117 13C37.2917 12.904 36.9077 12.772 36.5597 12.604C36.2117 12.424 35.8997 12.22 35.6237 11.992C35.3597 11.764 35.1257 11.524 34.9217 11.272L36.1097 10.012C36.2897 10.24 36.4817 10.45 36.6857 10.642C36.9017 10.834 37.1297 11.002 37.3697 11.146C37.6217 11.278 37.8917 11.386 38.1797 11.47C38.4797 11.554 38.8097 11.596 39.1697 11.596C39.5657 11.596 39.9137 11.548 40.2137 11.452C40.5137 11.344 40.7597 11.2 40.9517 11.02C41.1557 10.84 41.3057 10.624 41.4017 10.372C41.4977 10.12 41.5457 9.844 41.5457 9.544C41.5457 9.136 41.4617 8.794 41.2937 8.518C41.1257 8.242 40.8977 8.008 40.6097 7.816C40.3217 7.612 39.9977 7.438 39.6377 7.294C39.2897 7.138 38.9237 6.988 38.5397 6.844C38.1677 6.688 37.8017 6.526 37.4417 6.358C37.0817 6.178 36.7577 5.962 36.4697 5.71C36.1817 5.458 35.9537 5.158 35.7857 4.81C35.6177 4.45 35.5337 4.012 35.5337 3.496C35.5337 2.992 35.6237 2.536 35.8037 2.128C35.9837 1.72 36.2417 1.378 36.5777 1.102C36.9137 0.813999 37.3157 0.597999 37.7837 0.454C38.2637 0.297999 38.7917 0.219999 39.3677 0.219999C39.7997 0.219999 40.1957 0.267999 40.5557 0.364C40.9277 0.447999 41.2577 0.561999 41.5457 0.705999C41.8457 0.837999 42.1037 0.999999 42.3197 1.192C42.5477 1.372 42.7517 1.564 42.9317 1.768L41.8697 2.902C41.5577 2.59 41.1977 2.326 40.7897 2.11C40.3937 1.894 39.9137 1.786 39.3497 1.786C39.0137 1.786 38.7137 1.828 38.4497 1.912C38.1977 1.984 37.9817 2.092 37.8017 2.236C37.6337 2.38 37.5017 2.548 37.4057 2.74C37.3097 2.932 37.2617 3.154 37.2617 3.406C37.2617 3.742 37.3457 4.03 37.5137 4.27C37.6937 4.498 37.9217 4.702 38.1977 4.882C38.4857 5.062 38.8097 5.224 39.1697 5.368C39.5297 5.512 39.9017 5.662 40.2857 5.818C40.6697 5.974 41.0357 6.148 41.3837 6.34C41.7437 6.532 42.0677 6.766 42.3557 7.042C42.6437 7.318 42.8717 7.648 43.0397 8.032C43.2197 8.404 43.3097 8.854 43.3097 9.382C43.3097 10.006 43.2017 10.558 42.9857 11.038C42.7697 11.506 42.4757 11.902 42.1037 12.226C41.7317 12.538 41.2877 12.772 40.7717 12.928C40.2677 13.084 39.7217 13.162 39.1337 13.162ZM46.735 17.32H45.133V7.33V7.204V4.972H46.645V7.204L46.735 7.33V10.75V11.002V17.32ZM49.489 13.144C49.081 13.144 48.697 13.084 48.337 12.964C47.989 12.844 47.677 12.688 47.401 12.496C47.137 12.292 46.909 12.058 46.717 11.794C46.537 11.53 46.417 11.248 46.357 10.948V9.04H46.735C46.735 9.376 46.789 9.706 46.897 10.03C47.017 10.354 47.179 10.642 47.383 10.894C47.599 11.134 47.857 11.332 48.157 11.488C48.469 11.632 48.817 11.704 49.201 11.704C49.561 11.704 49.891 11.638 50.191 11.506C50.491 11.374 50.743 11.188 50.947 10.948C51.163 10.708 51.331 10.42 51.451 10.084C51.571 9.748 51.631 9.376 51.631 8.968C51.631 8.536 51.565 8.152 51.433 7.816C51.313 7.48 51.139 7.198 50.911 6.97C50.695 6.742 50.437 6.574 50.137 6.466C49.849 6.346 49.531 6.286 49.183 6.286C48.787 6.286 48.439 6.358 48.139 6.502C47.839 6.646 47.581 6.832 47.365 7.06C47.161 7.288 47.005 7.564 46.897 7.888C46.789 8.2 46.735 8.524 46.735 8.86H46.447V6.808C46.483 6.568 46.579 6.334 46.735 6.106C46.903 5.866 47.113 5.65 47.365 5.458C47.629 5.266 47.941 5.116 48.301 5.008C48.661 4.888 49.057 4.828 49.489 4.828C50.005 4.828 50.497 4.93 50.965 5.134C51.433 5.326 51.841 5.602 52.189 5.962C52.537 6.322 52.813 6.76 53.017 7.276C53.221 7.78 53.323 8.35 53.323 8.986C53.323 9.622 53.215 10.198 52.999 10.714C52.795 11.23 52.513 11.668 52.153 12.028C51.805 12.388 51.397 12.664 50.929 12.856C50.461 13.048 49.981 13.144 49.489 13.144ZM61.3776 13V11.002L61.2876 10.732V7.33L61.3776 7.204V4.972H62.9076V7.204V7.33V13H61.3776ZM58.5516 13.144C58.0476 13.144 57.5616 13.048 57.0936 12.856C56.6256 12.664 56.2176 12.388 55.8696 12.028C55.5216 11.668 55.2396 11.23 55.0236 10.714C54.8196 10.198 54.7176 9.622 54.7176 8.986C54.7176 8.35 54.8136 7.78 55.0056 7.276C55.2096 6.76 55.4856 6.322 55.8336 5.962C56.1936 5.602 56.6016 5.326 57.0576 5.134C57.5256 4.93 58.0236 4.828 58.5516 4.828C58.9836 4.828 59.3736 4.888 59.7216 5.008C60.0816 5.116 60.3936 5.266 60.6576 5.458C60.9216 5.65 61.1316 5.866 61.2876 6.106C61.4556 6.334 61.5516 6.568 61.5756 6.808V8.86H61.2876C61.2876 8.524 61.2336 8.2 61.1256 7.888C61.0176 7.564 60.8616 7.288 60.6576 7.06C60.4536 6.832 60.1956 6.646 59.8836 6.502C59.5836 6.358 59.2416 6.286 58.8576 6.286C58.5096 6.286 58.1856 6.346 57.8856 6.466C57.5856 6.574 57.3216 6.742 57.0936 6.97C56.8776 7.198 56.7036 7.48 56.5716 7.816C56.4516 8.152 56.3916 8.536 56.3916 8.968C56.3916 9.376 56.4516 9.748 56.5716 10.084C56.6916 10.42 56.8596 10.708 57.0756 10.948C57.2916 11.188 57.5496 11.374 57.8496 11.506C58.1496 11.638 58.4736 11.704 58.8216 11.704C59.2176 11.704 59.5656 11.632 59.8656 11.488C60.1776 11.332 60.4356 11.134 60.6396 10.894C60.8436 10.642 60.9996 10.354 61.1076 10.03C61.2276 9.706 61.2876 9.376 61.2876 9.04H61.6656V10.948C61.6056 11.248 61.4796 11.53 61.2876 11.794C61.1076 12.058 60.8796 12.292 60.6036 12.496C60.3396 12.688 60.0276 12.844 59.6676 12.964C59.3196 13.084 58.9476 13.144 58.5516 13.144ZM69.0362 13.144C68.4002 13.144 67.8182 13.042 67.2902 12.838C66.7742 12.622 66.3362 12.328 65.9762 11.956C65.6162 11.584 65.3402 11.146 65.1482 10.642C64.9562 10.126 64.8602 9.568 64.8602 8.968C64.8602 8.32 64.9682 7.744 65.1842 7.24C65.4002 6.724 65.6942 6.292 66.0662 5.944C66.4382 5.584 66.8762 5.308 67.3802 5.116C67.8962 4.924 68.4482 4.828 69.0362 4.828C69.3482 4.828 69.6542 4.858 69.9542 4.918C70.2542 4.978 70.5362 5.062 70.8002 5.17C71.0642 5.266 71.3102 5.392 71.5382 5.548C71.7662 5.692 71.9642 5.854 72.1322 6.034L71.2502 7.204C70.9982 6.916 70.6862 6.688 70.3142 6.52C69.9422 6.34 69.5402 6.25 69.1082 6.25C68.7362 6.25 68.3882 6.316 68.0642 6.448C67.7522 6.568 67.4762 6.748 67.2362 6.988C67.0082 7.216 66.8282 7.498 66.6962 7.834C66.5642 8.158 66.4982 8.524 66.4982 8.932C66.4982 9.352 66.5642 9.736 66.6962 10.084C66.8282 10.42 67.0142 10.714 67.2542 10.966C67.4942 11.206 67.7762 11.392 68.1002 11.524C68.4242 11.656 68.7842 11.722 69.1802 11.722C69.6482 11.722 70.0562 11.638 70.4042 11.47C70.7642 11.29 71.0642 11.056 71.3042 10.768L72.2942 11.74C71.9462 12.16 71.4962 12.502 70.9442 12.766C70.3922 13.018 69.7562 13.144 69.0362 13.144ZM77.5624 13.144C76.9504 13.144 76.3864 13.048 75.8704 12.856C75.3664 12.652 74.9224 12.37 74.5384 12.01C74.1664 11.65 73.8724 11.218 73.6564 10.714C73.4524 10.21 73.3504 9.64 73.3504 9.004C73.3504 8.344 73.4584 7.756 73.6744 7.24C73.9024 6.724 74.2084 6.292 74.5924 5.944C74.9764 5.584 75.4144 5.308 75.9064 5.116C76.4104 4.924 76.9384 4.828 77.4904 4.828C78.1144 4.828 78.6664 4.942 79.1464 5.17C79.6384 5.386 80.0524 5.686 80.3884 6.07C80.7244 6.442 80.9764 6.874 81.1444 7.366C81.3244 7.846 81.4144 8.35 81.4144 8.878V9.328H74.3404V8.14H80.7844L79.8484 9.094V8.608C79.8484 8.272 79.7884 7.96 79.6684 7.672C79.5484 7.384 79.3744 7.132 79.1464 6.916C78.9304 6.7 78.6724 6.532 78.3724 6.412C78.0724 6.28 77.7424 6.214 77.3824 6.214C77.0344 6.214 76.7044 6.28 76.3924 6.412C76.0924 6.532 75.8344 6.712 75.6184 6.952C75.4024 7.192 75.2284 7.48 75.0964 7.816C74.9764 8.152 74.9164 8.53 74.9164 8.95C74.9164 9.382 74.9824 9.772 75.1144 10.12C75.2584 10.468 75.4504 10.768 75.6904 11.02C75.9424 11.26 76.2364 11.446 76.5724 11.578C76.9084 11.71 77.2744 11.776 77.6704 11.776C78.1744 11.776 78.6364 11.68 79.0564 11.488C79.4884 11.296 79.8424 11.032 80.1184 10.696L81.0904 11.596C80.6944 12.112 80.1844 12.502 79.5604 12.766C78.9364 13.018 78.2704 13.144 77.5624 13.144ZM90.1833 0.399999V12.226L89.3733 11.47H94.9893V13H88.4913V0.399999H90.1833ZM102.546 13V11.002L102.456 10.732V7.33L102.546 7.204V4.972H104.076V7.204V7.33V13H102.546ZM99.7196 13.144C99.2156 13.144 98.7296 13.048 98.2616 12.856C97.7936 12.664 97.3856 12.388 97.0376 12.028C96.6896 11.668 96.4076 11.23 96.1916 10.714C95.9876 10.198 95.8856 9.622 95.8856 8.986C95.8856 8.35 95.9816 7.78 96.1736 7.276C96.3776 6.76 96.6536 6.322 97.0016 5.962C97.3616 5.602 97.7696 5.326 98.2256 5.134C98.6936 4.93 99.1916 4.828 99.7196 4.828C100.152 4.828 100.542 4.888 100.89 5.008C101.25 5.116 101.562 5.266 101.826 5.458C102.09 5.65 102.3 5.866 102.456 6.106C102.624 6.334 102.72 6.568 102.744 6.808V8.86H102.456C102.456 8.524 102.402 8.2 102.294 7.888C102.186 7.564 102.03 7.288 101.826 7.06C101.622 6.832 101.364 6.646 101.052 6.502C100.752 6.358 100.41 6.286 100.026 6.286C99.6776 6.286 99.3536 6.346 99.0536 6.466C98.7536 6.574 98.4896 6.742 98.2616 6.97C98.0456 7.198 97.8716 7.48 97.7396 7.816C97.6196 8.152 97.5596 8.536 97.5596 8.968C97.5596 9.376 97.6196 9.748 97.7396 10.084C97.8596 10.42 98.0276 10.708 98.2436 10.948C98.4596 11.188 98.7176 11.374 99.0176 11.506C99.3176 11.638 99.6416 11.704 99.9896 11.704C100.386 11.704 100.734 11.632 101.034 11.488C101.346 11.332 101.604 11.134 101.808 10.894C102.012 10.642 102.168 10.354 102.276 10.03C102.396 9.706 102.456 9.376 102.456 9.04H102.834V10.948C102.774 11.248 102.648 11.53 102.456 11.794C102.276 12.058 102.048 12.292 101.772 12.496C101.508 12.688 101.196 12.844 100.836 12.964C100.488 13.084 100.116 13.144 99.7196 13.144ZM106.586 13V11.002V10.732V7.33V7.204V4.972H108.098V7.204L108.188 7.33V13H106.586ZM112.148 8.464C112.148 8.092 112.1 7.774 112.004 7.51C111.908 7.246 111.776 7.03 111.608 6.862C111.44 6.694 111.242 6.568 111.014 6.484C110.786 6.4 110.546 6.358 110.294 6.358C109.97 6.358 109.676 6.424 109.412 6.556C109.16 6.688 108.938 6.868 108.746 7.096C108.566 7.324 108.428 7.594 108.332 7.906C108.236 8.218 108.188 8.554 108.188 8.914H107.81V7.096C107.858 6.808 107.96 6.532 108.116 6.268C108.284 6.004 108.494 5.77 108.746 5.566C108.998 5.35 109.298 5.182 109.646 5.062C109.994 4.93 110.366 4.864 110.762 4.864C111.206 4.864 111.608 4.936 111.968 5.08C112.328 5.224 112.64 5.434 112.904 5.71C113.168 5.986 113.372 6.322 113.516 6.718C113.672 7.114 113.75 7.564 113.75 8.068V8.248V13H112.148V8.464ZM119.785 13.144C119.173 13.144 118.609 13.048 118.093 12.856C117.589 12.652 117.145 12.37 116.761 12.01C116.389 11.65 116.095 11.218 115.879 10.714C115.675 10.21 115.573 9.64 115.573 9.004C115.573 8.344 115.681 7.756 115.897 7.24C116.125 6.724 116.431 6.292 116.815 5.944C117.199 5.584 117.637 5.308 118.129 5.116C118.633 4.924 119.161 4.828 119.713 4.828C120.337 4.828 120.889 4.942 121.369 5.17C121.861 5.386 122.275 5.686 122.611 6.07C122.947 6.442 123.199 6.874 123.367 7.366C123.547 7.846 123.637 8.35 123.637 8.878V9.328H116.563V8.14H123.007L122.071 9.094V8.608C122.071 8.272 122.011 7.96 121.891 7.672C121.771 7.384 121.597 7.132 121.369 6.916C121.153 6.7 120.895 6.532 120.595 6.412C120.295 6.28 119.965 6.214 119.605 6.214C119.257 6.214 118.927 6.28 118.615 6.412C118.315 6.532 118.057 6.712 117.841 6.952C117.625 7.192 117.451 7.48 117.319 7.816C117.199 8.152 117.139 8.53 117.139 8.95C117.139 9.382 117.205 9.772 117.337 10.12C117.481 10.468 117.673 10.768 117.913 11.02C118.165 11.26 118.459 11.446 118.795 11.578C119.131 11.71 119.497 11.776 119.893 11.776C120.397 11.776 120.859 11.68 121.279 11.488C121.711 11.296 122.065 11.032 122.341 10.696L123.313 11.596C122.917 12.112 122.407 12.502 121.783 12.766C121.159 13.018 120.493 13.144 119.785 13.144ZM142.054 8.068V9.454H130.048V8.068H142.054ZM151.539 13.144C151.179 13.144 150.831 13.108 150.495 13.036C150.159 12.964 149.853 12.862 149.577 12.73C149.301 12.586 149.049 12.424 148.821 12.244C148.593 12.052 148.395 11.842 148.227 11.614L149.307 10.768C149.535 11.068 149.823 11.308 150.171 11.488C150.531 11.656 150.939 11.74 151.395 11.74C151.803 11.74 152.169 11.668 152.493 11.524C152.829 11.38 153.111 11.182 153.339 10.93C153.579 10.678 153.759 10.384 153.879 10.048C153.999 9.712 154.059 9.346 154.059 8.95C154.059 8.518 153.993 8.134 153.861 7.798C153.729 7.462 153.543 7.18 153.303 6.952C153.075 6.724 152.805 6.55 152.493 6.43C152.181 6.31 151.845 6.25 151.485 6.25C151.041 6.25 150.633 6.334 150.261 6.502C149.901 6.67 149.601 6.904 149.361 7.204L148.353 6.16C148.521 5.956 148.719 5.77 148.947 5.602C149.187 5.434 149.445 5.296 149.721 5.188C149.997 5.068 150.285 4.978 150.585 4.918C150.897 4.858 151.209 4.828 151.521 4.828C152.109 4.828 152.655 4.924 153.159 5.116C153.663 5.308 154.101 5.578 154.473 5.926C154.857 6.274 155.157 6.706 155.373 7.222C155.589 7.726 155.697 8.302 155.697 8.95C155.697 9.55 155.595 10.108 155.391 10.624C155.199 11.128 154.923 11.572 154.563 11.956C154.203 12.328 153.765 12.622 153.249 12.838C152.745 13.042 152.175 13.144 151.539 13.144ZM150.639 9.436V8.14H154.545V9.436H150.639ZM159.133 13V6.412H156.523V4.972H163.363V6.412H160.753V13H159.133ZM168.23 13.144C167.63 13.144 167.072 13.042 166.556 12.838C166.052 12.622 165.614 12.328 165.242 11.956C164.87 11.584 164.576 11.146 164.36 10.642C164.156 10.126 164.054 9.568 164.054 8.968C164.054 8.368 164.156 7.816 164.36 7.312C164.576 6.796 164.87 6.358 165.242 5.998C165.614 5.626 166.052 5.338 166.556 5.134C167.072 4.93 167.63 4.828 168.23 4.828C168.83 4.828 169.382 4.93 169.886 5.134C170.402 5.338 170.846 5.626 171.218 5.998C171.59 6.358 171.878 6.79 172.082 7.294C172.298 7.798 172.406 8.356 172.406 8.968C172.406 9.568 172.298 10.126 172.082 10.642C171.866 11.146 171.572 11.584 171.2 11.956C170.828 12.328 170.39 12.622 169.886 12.838C169.382 13.042 168.83 13.144 168.23 13.144ZM168.23 11.722C168.614 11.722 168.962 11.656 169.274 11.524C169.586 11.392 169.85 11.206 170.066 10.966C170.282 10.714 170.45 10.42 170.57 10.084C170.69 9.736 170.75 9.364 170.75 8.968C170.75 8.56 170.69 8.194 170.57 7.87C170.462 7.534 170.294 7.246 170.066 7.006C169.85 6.766 169.586 6.58 169.274 6.448C168.962 6.316 168.614 6.25 168.23 6.25C167.846 6.25 167.498 6.316 167.186 6.448C166.874 6.58 166.604 6.766 166.376 7.006C166.16 7.246 165.992 7.534 165.872 7.87C165.752 8.194 165.692 8.56 165.692 8.968C165.692 9.364 165.752 9.73 165.872 10.066C165.992 10.402 166.16 10.696 166.376 10.948C166.604 11.2 166.874 11.392 167.186 11.524C167.498 11.656 167.846 11.722 168.23 11.722ZM184.48 13L180.952 8.806L183.922 4.972H185.632V5.206L182.788 8.644L186.316 12.784V13H184.48ZM179.548 9.364V8.068H181.726V9.364H179.548ZM179.026 13V11.002V10.732V7.33V7.204V4.972H180.628V7.204V7.33V13H179.026ZM189.223 17.32H187.621V7.33V7.204V4.972H189.133V7.204L189.223 7.33V10.75V11.002V17.32ZM191.977 13.144C191.569 13.144 191.185 13.084 190.825 12.964C190.477 12.844 190.165 12.688 189.889 12.496C189.625 12.292 189.397 12.058 189.205 11.794C189.025 11.53 188.905 11.248 188.845 10.948V9.04H189.223C189.223 9.376 189.277 9.706 189.385 10.03C189.505 10.354 189.667 10.642 189.871 10.894C190.087 11.134 190.345 11.332 190.645 11.488C190.957 11.632 191.305 11.704 191.689 11.704C192.049 11.704 192.379 11.638 192.679 11.506C192.979 11.374 193.231 11.188 193.435 10.948C193.651 10.708 193.819 10.42 193.939 10.084C194.059 9.748 194.119 9.376 194.119 8.968C194.119 8.536 194.053 8.152 193.921 7.816C193.801 7.48 193.627 7.198 193.399 6.97C193.183 6.742 192.925 6.574 192.625 6.466C192.337 6.346 192.019 6.286 191.671 6.286C191.275 6.286 190.927 6.358 190.627 6.502C190.327 6.646 190.069 6.832 189.853 7.06C189.649 7.288 189.493 7.564 189.385 7.888C189.277 8.2 189.223 8.524 189.223 8.86H188.935V6.808C188.971 6.568 189.067 6.334 189.223 6.106C189.391 5.866 189.601 5.65 189.853 5.458C190.117 5.266 190.429 5.116 190.789 5.008C191.149 4.888 191.545 4.828 191.977 4.828C192.493 4.828 192.985 4.93 193.453 5.134C193.921 5.326 194.329 5.602 194.677 5.962C195.025 6.322 195.301 6.76 195.505 7.276C195.709 7.78 195.811 8.35 195.811 8.986C195.811 9.622 195.703 10.198 195.487 10.714C195.283 11.23 195.001 11.668 194.641 12.028C194.293 12.388 193.885 12.664 193.417 12.856C192.949 13.048 192.469 13.144 191.977 13.144ZM203.866 13V11.002L203.776 10.732V7.33L203.866 7.204V4.972H205.396V7.204V7.33V13H203.866ZM201.04 13.144C200.536 13.144 200.05 13.048 199.582 12.856C199.114 12.664 198.706 12.388 198.358 12.028C198.01 11.668 197.728 11.23 197.512 10.714C197.308 10.198 197.206 9.622 197.206 8.986C197.206 8.35 197.302 7.78 197.494 7.276C197.698 6.76 197.974 6.322 198.322 5.962C198.682 5.602 199.09 5.326 199.546 5.134C200.014 4.93 200.512 4.828 201.04 4.828C201.472 4.828 201.862 4.888 202.21 5.008C202.57 5.116 202.882 5.266 203.146 5.458C203.41 5.65 203.62 5.866 203.776 6.106C203.944 6.334 204.04 6.568 204.064 6.808V8.86H203.776C203.776 8.524 203.722 8.2 203.614 7.888C203.506 7.564 203.35 7.288 203.146 7.06C202.942 6.832 202.684 6.646 202.372 6.502C202.072 6.358 201.73 6.286 201.346 6.286C200.998 6.286 200.674 6.346 200.374 6.466C200.074 6.574 199.81 6.742 199.582 6.97C199.366 7.198 199.192 7.48 199.06 7.816C198.94 8.152 198.88 8.536 198.88 8.968C198.88 9.376 198.94 9.748 199.06 10.084C199.18 10.42 199.348 10.708 199.564 10.948C199.78 11.188 200.038 11.374 200.338 11.506C200.638 11.638 200.962 11.704 201.31 11.704C201.706 11.704 202.054 11.632 202.354 11.488C202.666 11.332 202.924 11.134 203.128 10.894C203.332 10.642 203.488 10.354 203.596 10.03C203.716 9.706 203.776 9.376 203.776 9.04H204.154V10.948C204.094 11.248 203.968 11.53 203.776 11.794C203.596 12.058 203.368 12.292 203.092 12.496C202.828 12.688 202.516 12.844 202.156 12.964C201.808 13.084 201.436 13.144 201.04 13.144ZM211.524 13.144C210.888 13.144 210.306 13.042 209.778 12.838C209.262 12.622 208.824 12.328 208.464 11.956C208.104 11.584 207.828 11.146 207.636 10.642C207.444 10.126 207.348 9.568 207.348 8.968C207.348 8.32 207.456 7.744 207.672 7.24C207.888 6.724 208.182 6.292 208.554 5.944C208.926 5.584 209.364 5.308 209.868 5.116C210.384 4.924 210.936 4.828 211.524 4.828C211.836 4.828 212.142 4.858 212.442 4.918C212.742 4.978 213.024 5.062 213.288 5.17C213.552 5.266 213.798 5.392 214.026 5.548C214.254 5.692 214.452 5.854 214.62 6.034L213.738 7.204C213.486 6.916 213.174 6.688 212.802 6.52C212.43 6.34 212.028 6.25 211.596 6.25C211.224 6.25 210.876 6.316 210.552 6.448C210.24 6.568 209.964 6.748 209.724 6.988C209.496 7.216 209.316 7.498 209.184 7.834C209.052 8.158 208.986 8.524 208.986 8.932C208.986 9.352 209.052 9.736 209.184 10.084C209.316 10.42 209.502 10.714 209.742 10.966C209.982 11.206 210.264 11.392 210.588 11.524C210.912 11.656 211.272 11.722 211.668 11.722C212.136 11.722 212.544 11.638 212.892 11.47C213.252 11.29 213.552 11.056 213.792 10.768L214.782 11.74C214.434 12.16 213.984 12.502 213.432 12.766C212.88 13.018 212.244 13.144 211.524 13.144ZM220.015 13.144C219.415 13.144 218.857 13.042 218.341 12.838C217.837 12.622 217.399 12.328 217.027 11.956C216.655 11.584 216.361 11.146 216.145 10.642C215.941 10.126 215.839 9.568 215.839 8.968C215.839 8.368 215.941 7.816 216.145 7.312C216.361 6.796 216.655 6.358 217.027 5.998C217.399 5.626 217.837 5.338 218.341 5.134C218.857 4.93 219.415 4.828 220.015 4.828C220.615 4.828 221.167 4.93 221.671 5.134C222.187 5.338 222.631 5.626 223.003 5.998C223.375 6.358 223.663 6.79 223.867 7.294C224.083 7.798 224.191 8.356 224.191 8.968C224.191 9.568 224.083 10.126 223.867 10.642C223.651 11.146 223.357 11.584 222.985 11.956C222.613 12.328 222.175 12.622 221.671 12.838C221.167 13.042 220.615 13.144 220.015 13.144ZM220.015 11.722C220.399 11.722 220.747 11.656 221.059 11.524C221.371 11.392 221.635 11.206 221.851 10.966C222.067 10.714 222.235 10.42 222.355 10.084C222.475 9.736 222.535 9.364 222.535 8.968C222.535 8.56 222.475 8.194 222.355 7.87C222.247 7.534 222.079 7.246 221.851 7.006C221.635 6.766 221.371 6.58 221.059 6.448C220.747 6.316 220.399 6.25 220.015 6.25C219.631 6.25 219.283 6.316 218.971 6.448C218.659 6.58 218.389 6.766 218.161 7.006C217.945 7.246 217.777 7.534 217.657 7.87C217.537 8.194 217.477 8.56 217.477 8.968C217.477 9.364 217.537 9.73 217.657 10.066C217.777 10.402 217.945 10.696 218.161 10.948C218.389 11.2 218.659 11.392 218.971 11.524C219.283 11.656 219.631 11.722 220.015 11.722ZM227.617 13V6.412H225.007V4.972H231.847V6.412H229.237V13H227.617ZM239.198 13V11.002L239.108 10.732V7.33L239.198 7.204V4.972H240.728V7.204V7.33V13H239.198ZM236.372 13.144C235.868 13.144 235.382 13.048 234.914 12.856C234.446 12.664 234.038 12.388 233.69 12.028C233.342 11.668 233.06 11.23 232.844 10.714C232.64 10.198 232.538 9.622 232.538 8.986C232.538 8.35 232.634 7.78 232.826 7.276C233.03 6.76 233.306 6.322 233.654 5.962C234.014 5.602 234.422 5.326 234.878 5.134C235.346 4.93 235.844 4.828 236.372 4.828C236.804 4.828 237.194 4.888 237.542 5.008C237.902 5.116 238.214 5.266 238.478 5.458C238.742 5.65 238.952 5.866 239.108 6.106C239.276 6.334 239.372 6.568 239.396 6.808V8.86H239.108C239.108 8.524 239.054 8.2 238.946 7.888C238.838 7.564 238.682 7.288 238.478 7.06C238.274 6.832 238.016 6.646 237.704 6.502C237.404 6.358 237.062 6.286 236.678 6.286C236.33 6.286 236.006 6.346 235.706 6.466C235.406 6.574 235.142 6.742 234.914 6.97C234.698 7.198 234.524 7.48 234.392 7.816C234.272 8.152 234.212 8.536 234.212 8.968C234.212 9.376 234.272 9.748 234.392 10.084C234.512 10.42 234.68 10.708 234.896 10.948C235.112 11.188 235.37 11.374 235.67 11.506C235.97 11.638 236.294 11.704 236.642 11.704C237.038 11.704 237.386 11.632 237.686 11.488C237.998 11.332 238.256 11.134 238.46 10.894C238.664 10.642 238.82 10.354 238.928 10.03C239.048 9.706 239.108 9.376 239.108 9.04H239.486V10.948C239.426 11.248 239.3 11.53 239.108 11.794C238.928 12.058 238.7 12.292 238.424 12.496C238.16 12.688 237.848 12.844 237.488 12.964C237.14 13.084 236.768 13.144 236.372 13.144ZM0.652727 37.126C0.544727 37.126 0.454727 37.12 0.382727 37.108C0.322727 37.108 0.274727 37.102 0.238727 37.09V35.488C0.286727 35.5 0.328727 35.506 0.364727 35.506C0.412727 35.506 0.448727 35.506 0.472727 35.506C0.652727 35.506 0.820727 35.446 0.976727 35.326C1.13273 35.194 1.26473 34.966 1.37273 34.642C1.49273 34.318 1.58273 33.874 1.64273 33.31C1.71473 32.734 1.75073 32.008 1.75073 31.132V28.972H7.42073V37H5.81873V30.412H3.26273V31.906C3.26273 32.914 3.19673 33.754 3.06473 34.426C2.94473 35.086 2.76473 35.62 2.52473 36.028C2.29673 36.424 2.02673 36.706 1.71473 36.874C1.40273 37.042 1.04873 37.126 0.652727 37.126ZM9.93285 37V28.972H11.5349V35.38L10.5089 35.47L15.9989 28.972H17.0789V37H15.4589V30.592L16.3769 30.502L10.8869 37H9.93285ZM20.4472 33.49V32.068H25.8472V33.49H20.4472ZM19.5832 37V35.002V34.732V31.33V31.204V28.972H21.1852V31.204V31.33V37H19.5832ZM25.1452 37V35.002V34.732V31.33V31.204V28.972H26.7472V31.204V31.33V37H25.1452ZM29.2688 37V28.972H30.8708V35.38L29.8448 35.47L35.3348 28.972H36.4148V37H34.7948V30.592L35.7128 30.502L30.2228 37H29.2688ZM38.9192 37V28.972H40.5212V35.38L39.4952 35.47L44.9852 28.972H46.0652V37H44.4452V30.592L45.3632 30.502L39.8732 37H38.9192ZM42.5012 27.766C42.1292 27.766 41.7812 27.718 41.4572 27.622C41.1452 27.514 40.8692 27.364 40.6292 27.172C40.4012 26.968 40.2212 26.722 40.0892 26.434C39.9572 26.146 39.8912 25.804 39.8912 25.408H41.2052C41.2052 25.78 41.3132 26.08 41.5292 26.308C41.7572 26.524 42.0872 26.632 42.5192 26.632C42.9392 26.632 43.2632 26.524 43.4912 26.308C43.7312 26.092 43.8512 25.792 43.8512 25.408H45.1472C45.1472 25.804 45.0752 26.146 44.9312 26.434C44.7872 26.722 44.5952 26.968 44.3552 27.172C44.1272 27.364 43.8512 27.514 43.5272 27.622C43.2032 27.718 42.8612 27.766 42.5012 27.766ZM59.3474 37V35.002L59.2574 34.732V31.33L59.3474 31.204V28.972H60.8774V31.204V31.33V37H59.3474ZM56.5214 37.144C56.0174 37.144 55.5314 37.048 55.0634 36.856C54.5954 36.664 54.1874 36.388 53.8394 36.028C53.4914 35.668 53.2094 35.23 52.9934 34.714C52.7894 34.198 52.6874 33.622 52.6874 32.986C52.6874 32.35 52.7834 31.78 52.9754 31.276C53.1794 30.76 53.4554 30.322 53.8034 29.962C54.1634 29.602 54.5714 29.326 55.0274 29.134C55.4954 28.93 55.9934 28.828 56.5214 28.828C56.9534 28.828 57.3434 28.888 57.6914 29.008C58.0514 29.116 58.3634 29.266 58.6274 29.458C58.8914 29.65 59.1014 29.866 59.2574 30.106C59.4254 30.334 59.5214 30.568 59.5454 30.808V32.86H59.2574C59.2574 32.524 59.2034 32.2 59.0954 31.888C58.9874 31.564 58.8314 31.288 58.6274 31.06C58.4234 30.832 58.1654 30.646 57.8534 30.502C57.5534 30.358 57.2114 30.286 56.8274 30.286C56.4794 30.286 56.1554 30.346 55.8554 30.466C55.5554 30.574 55.2914 30.742 55.0634 30.97C54.8474 31.198 54.6734 31.48 54.5414 31.816C54.4214 32.152 54.3614 32.536 54.3614 32.968C54.3614 33.376 54.4214 33.748 54.5414 34.084C54.6614 34.42 54.8294 34.708 55.0454 34.948C55.2614 35.188 55.5194 35.374 55.8194 35.506C56.1194 35.638 56.4434 35.704 56.7914 35.704C57.1874 35.704 57.5354 35.632 57.8354 35.488C58.1474 35.332 58.4054 35.134 58.6094 34.894C58.8134 34.642 58.9694 34.354 59.0774 34.03C59.1974 33.706 59.2574 33.376 59.2574 33.04H59.6354V34.948C59.5754 35.248 59.4494 35.53 59.2574 35.794C59.0774 36.058 58.8494 36.292 58.5734 36.496C58.3094 36.688 57.9974 36.844 57.6374 36.964C57.2894 37.084 56.9174 37.144 56.5214 37.144ZM64.9899 41.32H63.3879V31.33V31.204V28.972H64.8999V31.204L64.9899 31.33V34.75V35.002V41.32ZM67.7439 37.144C67.3359 37.144 66.9519 37.084 66.5919 36.964C66.2439 36.844 65.9319 36.688 65.6559 36.496C65.3919 36.292 65.1639 36.058 64.9719 35.794C64.7919 35.53 64.6719 35.248 64.6119 34.948V33.04H64.9899C64.9899 33.376 65.0439 33.706 65.1519 34.03C65.2719 34.354 65.4339 34.642 65.6379 34.894C65.8539 35.134 66.1119 35.332 66.4119 35.488C66.7239 35.632 67.0719 35.704 67.4559 35.704C67.8159 35.704 68.1459 35.638 68.4459 35.506C68.7459 35.374 68.9979 35.188 69.2019 34.948C69.4179 34.708 69.5859 34.42 69.7059 34.084C69.8259 33.748 69.8859 33.376 69.8859 32.968C69.8859 32.536 69.8199 32.152 69.6879 31.816C69.5679 31.48 69.3939 31.198 69.1659 30.97C68.9499 30.742 68.6919 30.574 68.3919 30.466C68.1039 30.346 67.7859 30.286 67.4379 30.286C67.0419 30.286 66.6939 30.358 66.3939 30.502C66.0939 30.646 65.8359 30.832 65.6199 31.06C65.4159 31.288 65.2599 31.564 65.1519 31.888C65.0439 32.2 64.9899 32.524 64.9899 32.86H64.7019V30.808C64.7379 30.568 64.8339 30.334 64.9899 30.106C65.1579 29.866 65.3679 29.65 65.6199 29.458C65.8839 29.266 66.1959 29.116 66.5559 29.008C66.9159 28.888 67.3119 28.828 67.7439 28.828C68.2599 28.828 68.7519 28.93 69.2199 29.134C69.6879 29.326 70.0959 29.602 70.4439 29.962C70.7919 30.322 71.0679 30.76 71.2719 31.276C71.4759 31.78 71.5779 32.35 71.5779 32.986C71.5779 33.622 71.4699 34.198 71.2539 34.714C71.0499 35.23 70.7679 35.668 70.4079 36.028C70.0599 36.388 69.6519 36.664 69.1839 36.856C68.7159 37.048 68.2359 37.144 67.7439 37.144ZM72.3291 37V36.748L75.5151 32.158V33.544L72.5451 29.242V28.972H74.3091L76.5411 32.302H75.7671L77.9991 28.972H79.6011V29.242L76.6491 33.454L76.5951 32.068L79.8171 36.748L79.8351 37H78.0891L75.6771 33.436H76.4511L73.9851 37H72.3291ZM81.3528 37V28.972H82.9548V35.38L81.9288 35.47L87.4188 28.972H88.4988V37H86.8788V30.592L87.7968 30.502L82.3068 37H81.3528ZM92.7492 37V30.412H90.1392V28.972H96.9792V30.412H94.3692V37H92.7492ZM101.882 37.144C101.27 37.144 100.706 37.048 100.19 36.856C99.6858 36.652 99.2418 36.37 98.8578 36.01C98.4858 35.65 98.1918 35.218 97.9758 34.714C97.7718 34.21 97.6698 33.64 97.6698 33.004C97.6698 32.344 97.7778 31.756 97.9938 31.24C98.2218 30.724 98.5278 30.292 98.9118 29.944C99.2958 29.584 99.7338 29.308 100.226 29.116C100.73 28.924 101.258 28.828 101.81 28.828C102.434 28.828 102.986 28.942 103.466 29.17C103.958 29.386 104.372 29.686 104.708 30.07C105.044 30.442 105.296 30.874 105.464 31.366C105.644 31.846 105.734 32.35 105.734 32.878V33.328H98.6598V32.14H105.104L104.168 33.094V32.608C104.168 32.272 104.108 31.96 103.988 31.672C103.868 31.384 103.694 31.132 103.466 30.916C103.25 30.7 102.992 30.532 102.692 30.412C102.392 30.28 102.062 30.214 101.702 30.214C101.354 30.214 101.024 30.28 100.712 30.412C100.412 30.532 100.154 30.712 99.9378 30.952C99.7218 31.192 99.5478 31.48 99.4158 31.816C99.2958 32.152 99.2358 32.53 99.2358 32.95C99.2358 33.382 99.3018 33.772 99.4338 34.12C99.5778 34.468 99.7698 34.768 100.01 35.02C100.262 35.26 100.556 35.446 100.892 35.578C101.228 35.71 101.594 35.776 101.99 35.776C102.494 35.776 102.956 35.68 103.376 35.488C103.808 35.296 104.162 35.032 104.438 34.696L105.41 35.596C105.014 36.112 104.504 36.502 103.88 36.766C103.256 37.018 102.59 37.144 101.882 37.144ZM113.139 37L109.611 32.806L112.581 28.972H114.291V29.206L111.447 32.644L114.975 36.784V37H113.139ZM108.207 33.364V32.068H110.385V33.364H108.207ZM107.685 37V35.002V34.732V31.33V31.204V28.972H109.287V31.204V31.33V37H107.685ZM118.027 37V30.412H115.417V28.972H122.257V30.412H119.647V37H118.027ZM124.911 41.32V41.104L129.393 28.972H130.905L130.887 29.242L126.423 41.32H124.911ZM126.621 37.36L123.147 29.242V28.972H124.785L127.449 35.38L126.621 37.36ZM133.966 41.32H132.364V31.33V31.204V28.972H133.876V31.204L133.966 31.33V34.75V35.002V41.32ZM136.72 37.144C136.312 37.144 135.928 37.084 135.568 36.964C135.22 36.844 134.908 36.688 134.632 36.496C134.368 36.292 134.14 36.058 133.948 35.794C133.768 35.53 133.648 35.248 133.588 34.948V33.04H133.966C133.966 33.376 134.02 33.706 134.128 34.03C134.248 34.354 134.41 34.642 134.614 34.894C134.83 35.134 135.088 35.332 135.388 35.488C135.7 35.632 136.048 35.704 136.432 35.704C136.792 35.704 137.122 35.638 137.422 35.506C137.722 35.374 137.974 35.188 138.178 34.948C138.394 34.708 138.562 34.42 138.682 34.084C138.802 33.748 138.862 33.376 138.862 32.968C138.862 32.536 138.796 32.152 138.664 31.816C138.544 31.48 138.37 31.198 138.142 30.97C137.926 30.742 137.668 30.574 137.368 30.466C137.08 30.346 136.762 30.286 136.414 30.286C136.018 30.286 135.67 30.358 135.37 30.502C135.07 30.646 134.812 30.832 134.596 31.06C134.392 31.288 134.236 31.564 134.128 31.888C134.02 32.2 133.966 32.524 133.966 32.86H133.678V30.808C133.714 30.568 133.81 30.334 133.966 30.106C134.134 29.866 134.344 29.65 134.596 29.458C134.86 29.266 135.172 29.116 135.532 29.008C135.892 28.888 136.288 28.828 136.72 28.828C137.236 28.828 137.728 28.93 138.196 29.134C138.664 29.326 139.072 29.602 139.42 29.962C139.768 30.322 140.044 30.76 140.248 31.276C140.452 31.78 140.554 32.35 140.554 32.986C140.554 33.622 140.446 34.198 140.23 34.714C140.026 35.23 139.744 35.668 139.384 36.028C139.036 36.388 138.628 36.664 138.16 36.856C137.692 37.048 137.212 37.144 136.72 37.144ZM145.711 31.564C146.803 31.564 147.631 31.78 148.195 32.212C148.759 32.644 149.041 33.322 149.041 34.246C149.041 35.158 148.753 35.848 148.177 36.316C147.613 36.772 146.731 37 145.531 37H142.507V28.972H144.109V31.564H145.711ZM150.049 37V28.972H151.651V37H150.049ZM145.315 35.632C145.627 35.632 145.909 35.614 146.161 35.578C146.425 35.542 146.647 35.476 146.827 35.38C147.007 35.284 147.145 35.146 147.241 34.966C147.349 34.786 147.403 34.546 147.403 34.246C147.403 33.73 147.229 33.382 146.881 33.202C146.545 33.01 146.065 32.914 145.441 32.914H144.109V35.632H145.315ZM158.855 37V28.972H162.617C163.445 28.972 164.063 29.152 164.471 29.512C164.879 29.872 165.083 30.334 165.083 30.898C165.083 31.174 165.035 31.42 164.939 31.636C164.843 31.84 164.705 32.02 164.525 32.176C164.357 32.332 164.153 32.446 163.913 32.518C163.685 32.59 163.427 32.626 163.139 32.626V32.536C163.523 32.536 163.877 32.572 164.201 32.644C164.525 32.716 164.807 32.836 165.047 33.004C165.299 33.16 165.491 33.376 165.623 33.652C165.767 33.916 165.839 34.24 165.839 34.624C165.839 35.368 165.569 35.95 165.029 36.37C164.501 36.79 163.715 37 162.671 37H158.855ZM160.457 36.136L160.133 35.668H162.257C162.941 35.668 163.433 35.566 163.733 35.362C164.033 35.158 164.183 34.852 164.183 34.444C164.183 34.012 164.033 33.712 163.733 33.544C163.433 33.364 162.989 33.274 162.401 33.274H160.133V32.122H162.167C162.623 32.122 162.971 32.056 163.211 31.924C163.451 31.792 163.571 31.552 163.571 31.204C163.571 30.88 163.451 30.652 163.211 30.52C162.983 30.376 162.629 30.304 162.149 30.304H160.133L160.457 29.746V36.136ZM172.267 37V28.972H179.215V37H177.613V30.412H173.869V37H172.267ZM183.343 41.32H181.741V31.33V31.204V28.972H183.253V31.204L183.343 31.33V34.75V35.002V41.32ZM186.097 37.144C185.689 37.144 185.305 37.084 184.945 36.964C184.597 36.844 184.285 36.688 184.009 36.496C183.745 36.292 183.517 36.058 183.325 35.794C183.145 35.53 183.025 35.248 182.965 34.948V33.04H183.343C183.343 33.376 183.397 33.706 183.505 34.03C183.625 34.354 183.787 34.642 183.991 34.894C184.207 35.134 184.465 35.332 184.765 35.488C185.077 35.632 185.425 35.704 185.809 35.704C186.169 35.704 186.499 35.638 186.799 35.506C187.099 35.374 187.351 35.188 187.555 34.948C187.771 34.708 187.939 34.42 188.059 34.084C188.179 33.748 188.239 33.376 188.239 32.968C188.239 32.536 188.173 32.152 188.041 31.816C187.921 31.48 187.747 31.198 187.519 30.97C187.303 30.742 187.045 30.574 186.745 30.466C186.457 30.346 186.139 30.286 185.791 30.286C185.395 30.286 185.047 30.358 184.747 30.502C184.447 30.646 184.189 30.832 183.973 31.06C183.769 31.288 183.613 31.564 183.505 31.888C183.397 32.2 183.343 32.524 183.343 32.86H183.055V30.808C183.091 30.568 183.187 30.334 183.343 30.106C183.511 29.866 183.721 29.65 183.973 29.458C184.237 29.266 184.549 29.116 184.909 29.008C185.269 28.888 185.665 28.828 186.097 28.828C186.613 28.828 187.105 28.93 187.573 29.134C188.041 29.326 188.449 29.602 188.797 29.962C189.145 30.322 189.421 30.76 189.625 31.276C189.829 31.78 189.931 32.35 189.931 32.986C189.931 33.622 189.823 34.198 189.607 34.714C189.403 35.23 189.121 35.668 188.761 36.028C188.413 36.388 188.005 36.664 187.537 36.856C187.069 37.048 186.589 37.144 186.097 37.144ZM195.502 37.144C194.902 37.144 194.344 37.042 193.828 36.838C193.324 36.622 192.886 36.328 192.514 35.956C192.142 35.584 191.848 35.146 191.632 34.642C191.428 34.126 191.326 33.568 191.326 32.968C191.326 32.368 191.428 31.816 191.632 31.312C191.848 30.796 192.142 30.358 192.514 29.998C192.886 29.626 193.324 29.338 193.828 29.134C194.344 28.93 194.902 28.828 195.502 28.828C196.102 28.828 196.654 28.93 197.158 29.134C197.674 29.338 198.118 29.626 198.49 29.998C198.862 30.358 199.15 30.79 199.354 31.294C199.57 31.798 199.678 32.356 199.678 32.968C199.678 33.568 199.57 34.126 199.354 34.642C199.138 35.146 198.844 35.584 198.472 35.956C198.1 36.328 197.662 36.622 197.158 36.838C196.654 37.042 196.102 37.144 195.502 37.144ZM195.502 35.722C195.886 35.722 196.234 35.656 196.546 35.524C196.858 35.392 197.122 35.206 197.338 34.966C197.554 34.714 197.722 34.42 197.842 34.084C197.962 33.736 198.022 33.364 198.022 32.968C198.022 32.56 197.962 32.194 197.842 31.87C197.734 31.534 197.566 31.246 197.338 31.006C197.122 30.766 196.858 30.58 196.546 30.448C196.234 30.316 195.886 30.25 195.502 30.25C195.118 30.25 194.77 30.316 194.458 30.448C194.146 30.58 193.876 30.766 193.648 31.006C193.432 31.246 193.264 31.534 193.144 31.87C193.024 32.194 192.964 32.56 192.964 32.968C192.964 33.364 193.024 33.73 193.144 34.066C193.264 34.402 193.432 34.696 193.648 34.948C193.876 35.2 194.146 35.392 194.458 35.524C194.77 35.656 195.118 35.722 195.502 35.722ZM205.24 37.144C204.604 37.144 204.022 37.042 203.494 36.838C202.978 36.622 202.54 36.328 202.18 35.956C201.82 35.584 201.544 35.146 201.352 34.642C201.16 34.126 201.064 33.568 201.064 32.968C201.064 32.32 201.172 31.744 201.388 31.24C201.604 30.724 201.898 30.292 202.27 29.944C202.642 29.584 203.08 29.308 203.584 29.116C204.1 28.924 204.652 28.828 205.24 28.828C205.552 28.828 205.858 28.858 206.158 28.918C206.458 28.978 206.74 29.062 207.004 29.17C207.268 29.266 207.514 29.392 207.742 29.548C207.97 29.692 208.168 29.854 208.336 30.034L207.454 31.204C207.202 30.916 206.89 30.688 206.518 30.52C206.146 30.34 205.744 30.25 205.312 30.25C204.94 30.25 204.592 30.316 204.268 30.448C203.956 30.568 203.68 30.748 203.44 30.988C203.212 31.216 203.032 31.498 202.9 31.834C202.768 32.158 202.702 32.524 202.702 32.932C202.702 33.352 202.768 33.736 202.9 34.084C203.032 34.42 203.218 34.714 203.458 34.966C203.698 35.206 203.98 35.392 204.304 35.524C204.628 35.656 204.988 35.722 205.384 35.722C205.852 35.722 206.26 35.638 206.608 35.47C206.968 35.29 207.268 35.056 207.508 34.768L208.498 35.74C208.15 36.16 207.7 36.502 207.148 36.766C206.596 37.018 205.96 37.144 205.24 37.144ZM211.929 37V30.412H209.319V28.972H216.159V30.412H213.549V37H211.929ZM219.414 41.32H217.812V31.33V31.204V28.972H219.324V31.204L219.414 31.33V34.75V35.002V41.32ZM222.168 37.144C221.76 37.144 221.376 37.084 221.016 36.964C220.668 36.844 220.356 36.688 220.08 36.496C219.816 36.292 219.588 36.058 219.396 35.794C219.216 35.53 219.096 35.248 219.036 34.948V33.04H219.414C219.414 33.376 219.468 33.706 219.576 34.03C219.696 34.354 219.858 34.642 220.062 34.894C220.278 35.134 220.536 35.332 220.836 35.488C221.148 35.632 221.496 35.704 221.88 35.704C222.24 35.704 222.57 35.638 222.87 35.506C223.17 35.374 223.422 35.188 223.626 34.948C223.842 34.708 224.01 34.42 224.13 34.084C224.25 33.748 224.31 33.376 224.31 32.968C224.31 32.536 224.244 32.152 224.112 31.816C223.992 31.48 223.818 31.198 223.59 30.97C223.374 30.742 223.116 30.574 222.816 30.466C222.528 30.346 222.21 30.286 221.862 30.286C221.466 30.286 221.118 30.358 220.818 30.502C220.518 30.646 220.26 30.832 220.044 31.06C219.84 31.288 219.684 31.564 219.576 31.888C219.468 32.2 219.414 32.524 219.414 32.86H219.126V30.808C219.162 30.568 219.258 30.334 219.414 30.106C219.582 29.866 219.792 29.65 220.044 29.458C220.308 29.266 220.62 29.116 220.98 29.008C221.34 28.888 221.736 28.828 222.168 28.828C222.684 28.828 223.176 28.93 223.644 29.134C224.112 29.326 224.52 29.602 224.868 29.962C225.216 30.322 225.492 30.76 225.696 31.276C225.9 31.78 226.002 32.35 226.002 32.986C226.002 33.622 225.894 34.198 225.678 34.714C225.474 35.23 225.192 35.668 224.832 36.028C224.484 36.388 224.076 36.664 223.608 36.856C223.14 37.048 222.66 37.144 222.168 37.144ZM234.056 37V35.002L233.966 34.732V31.33L234.056 31.204V28.972H235.586V31.204V31.33V37H234.056ZM231.23 37.144C230.726 37.144 230.24 37.048 229.772 36.856C229.304 36.664 228.896 36.388 228.548 36.028C228.2 35.668 227.918 35.23 227.702 34.714C227.498 34.198 227.396 33.622 227.396 32.986C227.396 32.35 227.492 31.78 227.684 31.276C227.888 30.76 228.164 30.322 228.512 29.962C228.872 29.602 229.28 29.326 229.736 29.134C230.204 28.93 230.702 28.828 231.23 28.828C231.662 28.828 232.052 28.888 232.4 29.008C232.76 29.116 233.072 29.266 233.336 29.458C233.6 29.65 233.81 29.866 233.966 30.106C234.134 30.334 234.23 30.568 234.254 30.808V32.86H233.966C233.966 32.524 233.912 32.2 233.804 31.888C233.696 31.564 233.54 31.288 233.336 31.06C233.132 30.832 232.874 30.646 232.562 30.502C232.262 30.358 231.92 30.286 231.536 30.286C231.188 30.286 230.864 30.346 230.564 30.466C230.264 30.574 230 30.742 229.772 30.97C229.556 31.198 229.382 31.48 229.25 31.816C229.13 32.152 229.07 32.536 229.07 32.968C229.07 33.376 229.13 33.748 229.25 34.084C229.37 34.42 229.538 34.708 229.754 34.948C229.97 35.188 230.228 35.374 230.528 35.506C230.828 35.638 231.152 35.704 231.5 35.704C231.896 35.704 232.244 35.632 232.544 35.488C232.856 35.332 233.114 35.134 233.318 34.894C233.522 34.642 233.678 34.354 233.786 34.03C233.906 33.706 233.966 33.376 233.966 33.04H234.344V34.948C234.284 35.248 234.158 35.53 233.966 35.794C233.786 36.058 233.558 36.292 233.282 36.496C233.018 36.688 232.706 36.844 232.346 36.964C231.998 37.084 231.626 37.144 231.23 37.144ZM238.961 33.49V32.068H244.361V33.49H238.961ZM238.097 37V35.002V34.732V31.33V31.204V28.972H239.699V31.204V31.33V37H238.097ZM243.659 37V35.002V34.732V31.33V31.204V28.972H245.261V31.204V31.33V37H243.659ZM251.4 37.144C250.764 37.144 250.182 37.042 249.654 36.838C249.138 36.622 248.7 36.328 248.34 35.956C247.98 35.584 247.704 35.146 247.512 34.642C247.32 34.126 247.224 33.568 247.224 32.968C247.224 32.32 247.332 31.744 247.548 31.24C247.764 30.724 248.058 30.292 248.43 29.944C248.802 29.584 249.24 29.308 249.744 29.116C250.26 28.924 250.812 28.828 251.4 28.828C251.712 28.828 252.018 28.858 252.318 28.918C252.618 28.978 252.9 29.062 253.164 29.17C253.428 29.266 253.674 29.392 253.902 29.548C254.13 29.692 254.328 29.854 254.496 30.034L253.614 31.204C253.362 30.916 253.05 30.688 252.678 30.52C252.306 30.34 251.904 30.25 251.472 30.25C251.1 30.25 250.752 30.316 250.428 30.448C250.116 30.568 249.84 30.748 249.6 30.988C249.372 31.216 249.192 31.498 249.06 31.834C248.928 32.158 248.862 32.524 248.862 32.932C248.862 33.352 248.928 33.736 249.06 34.084C249.192 34.42 249.378 34.714 249.618 34.966C249.858 35.206 250.14 35.392 250.464 35.524C250.788 35.656 251.148 35.722 251.544 35.722C252.012 35.722 252.42 35.638 252.768 35.47C253.128 35.29 253.428 35.056 253.668 34.768L254.658 35.74C254.31 36.16 253.86 36.502 253.308 36.766C252.756 37.018 252.12 37.144 251.4 37.144ZM258.089 37V30.412H255.479V28.972H262.319V30.412H259.709V37H258.089ZM263.972 37V28.972H267.734C268.562 28.972 269.18 29.152 269.588 29.512C269.996 29.872 270.2 30.334 270.2 30.898C270.2 31.174 270.152 31.42 270.056 31.636C269.96 31.84 269.822 32.02 269.642 32.176C269.474 32.332 269.27 32.446 269.03 32.518C268.802 32.59 268.544 32.626 268.256 32.626V32.536C268.64 32.536 268.994 32.572 269.318 32.644C269.642 32.716 269.924 32.836 270.164 33.004C270.416 33.16 270.608 33.376 270.74 33.652C270.884 33.916 270.956 34.24 270.956 34.624C270.956 35.368 270.686 35.95 270.146 36.37C269.618 36.79 268.832 37 267.788 37H263.972ZM265.574 36.136L265.25 35.668H267.374C268.058 35.668 268.55 35.566 268.85 35.362C269.15 35.158 269.3 34.852 269.3 34.444C269.3 34.012 269.15 33.712 268.85 33.544C268.55 33.364 268.106 33.274 267.518 33.274H265.25V32.122H267.284C267.74 32.122 268.088 32.056 268.328 31.924C268.568 31.792 268.688 31.552 268.688 31.204C268.688 30.88 268.568 30.652 268.328 30.52C268.1 30.376 267.746 30.304 267.266 30.304H265.25L265.574 29.746V36.136ZM276.362 37.144C275.75 37.144 275.186 37.048 274.67 36.856C274.166 36.652 273.722 36.37 273.338 36.01C272.966 35.65 272.672 35.218 272.456 34.714C272.252 34.21 272.15 33.64 272.15 33.004C272.15 32.344 272.258 31.756 272.474 31.24C272.702 30.724 273.008 30.292 273.392 29.944C273.776 29.584 274.214 29.308 274.706 29.116C275.21 28.924 275.738 28.828 276.29 28.828C276.914 28.828 277.466 28.942 277.946 29.17C278.438 29.386 278.852 29.686 279.188 30.07C279.524 30.442 279.776 30.874 279.944 31.366C280.124 31.846 280.214 32.35 280.214 32.878V33.328H273.14V32.14H279.584L278.648 33.094V32.608C278.648 32.272 278.588 31.96 278.468 31.672C278.348 31.384 278.174 31.132 277.946 30.916C277.73 30.7 277.472 30.532 277.172 30.412C276.872 30.28 276.542 30.214 276.182 30.214C275.834 30.214 275.504 30.28 275.192 30.412C274.892 30.532 274.634 30.712 274.418 30.952C274.202 31.192 274.028 31.48 273.896 31.816C273.776 32.152 273.716 32.53 273.716 32.95C273.716 33.382 273.782 33.772 273.914 34.12C274.058 34.468 274.25 34.768 274.49 35.02C274.742 35.26 275.036 35.446 275.372 35.578C275.708 35.71 276.074 35.776 276.47 35.776C276.974 35.776 277.436 35.68 277.856 35.488C278.288 35.296 278.642 35.032 278.918 34.696L279.89 35.596C279.494 36.112 278.984 36.502 278.36 36.766C277.736 37.018 277.07 37.144 276.362 37.144Z" fill="#2A2827"/>
</svg>
