<svg width="60" height="60" viewBox="0 0 60 60" fill="none" xmlns="http://www.w3.org/2000/svg">
<path d="M48.5161 20.2885L43.8862 15.6585L39.2195 20.3252L34.5528 24.9919L29.8871 29.6576L34.4794 34.3252L48.5161 20.2885Z" fill="#D1D1D1"/>
<path d="M39.4068 39.3333L53.4839 25.2562L48.5161 20.2885L34.4794 34.3252L39.4068 39.3333Z" fill="#D1D1D1"/>
<path d="M43.8862 43.8862L58 29.7724L53.4839 25.2562L39.4068 39.3333L43.8862 43.8862Z" fill="#D1D1D1"/>
<path d="M15.6585 43.8862L20.2114 39.3333L25.2195 34.3252L29.8871 29.6576L25.2966 24.9919L11.0304 39.2581L15.6585 43.8862Z" fill="#D1D1D1"/>
<path d="M20.4039 20.0189L6.09756 34.3252L11.0304 39.2581L25.2966 24.9919L20.4039 20.0189Z" fill="#D1D1D1"/>
<path fill-rule="evenodd" clip-rule="evenodd" d="M43.8862 43.8862L39.3333 48.439L34.3252 53.4472L29.7724 58L15.6585 43.8862L20.2114 39.3333L25.2195 34.3252L29.8871 29.6576L34.4794 34.3252L39.4068 39.3333L43.8862 43.8862ZM20.4039 20.0189L25.2966 24.9919L29.8871 29.6576L34.5528 24.9919L39.2195 20.3252L43.8862 15.6585L30.2276 2L25.561 6.66667L20.8943 11.3333L16.2256 16.002L20.4039 20.0189Z" fill="#F05634"/>
<path d="M16.2256 16.002L2 30.2276L6.09756 34.3252L20.4039 20.0189L16.2256 16.002Z" fill="#D1D1D1"/>
<path d="M16.2256 16.002L20.4039 20.0189M16.2256 16.002L20.8943 11.3333M16.2256 16.002L2 30.2276M43.8862 43.8862L58 29.7724M43.8862 43.8862L39.4068 39.3333M43.8862 43.8862L39.3333 48.439M58 29.7724L39.3333 48.439M58 29.7724L53.4839 25.2562M2 30.2276L20.8943 11.3333M2 30.2276L6.09756 34.3252M15.6585 43.8862L29.7724 58L34.3252 53.4472M15.6585 43.8862L20.2114 39.3333M15.6585 43.8862L11.0304 39.2581M43.8862 15.6585L30.2276 2L25.561 6.66667M43.8862 15.6585L48.5161 20.2885M43.8862 15.6585L39.2195 20.3252M20.2114 39.3333L25.2195 34.3252M20.2114 39.3333L31.1144 50.2364L34.3252 53.4472M34.3252 53.4472L39.3333 48.439M25.2195 34.3252L39.3333 48.439M25.2195 34.3252L29.8871 29.6576M39.4068 39.3333L53.4839 25.2562M39.4068 39.3333L34.4794 34.3252M53.4839 25.2562L48.5161 20.2885M34.4794 34.3252L48.5161 20.2885M34.4794 34.3252L29.8871 29.6576M34.5528 24.9919L20.8943 11.3333M34.5528 24.9919L39.2195 20.3252M34.5528 24.9919L29.8871 29.6576M20.8943 11.3333L25.561 6.66667M39.2195 20.3252L25.561 6.66667M6.09756 34.3252L20.4039 20.0189M6.09756 34.3252L11.0304 39.2581M20.4039 20.0189L25.2966 24.9919M25.2966 24.9919L11.0304 39.2581M25.2966 24.9919L29.8871 29.6576" stroke="white" stroke-width="1.83292"/>
</svg>
