<svg width="74" height="69" viewBox="0 0 74 69" fill="none" xmlns="http://www.w3.org/2000/svg">
<path d="M17.959 35.2477L11 45.5413H58.8051C55.8803 42.318 49.8492 35.6844 49.1231 34.9358C48.3969 34.1872 47.4085 34 47.0051 34H20.9846C19.2903 34 18.2615 34.8318 17.959 35.2477Z" fill="white"/>
<path d="M17.3538 60.2018C17.3538 55.895 20.7404 52.4037 24.9179 52.4037C29.0955 52.4037 32.482 55.895 32.482 60.2018H48.5179C48.5179 55.895 51.9045 52.4037 56.082 52.4037C60.2596 52.4037 63.6462 55.895 63.6462 60.2018H66.6718C69.3344 60.2018 70 58.7462 70 58.0183V48.3486C70 46.1028 68.1846 45.5413 67.2769 45.5413H58.8051H11V56.4587C11 59.3284 12.2103 60.1498 12.8154 60.2018H17.3538Z" fill="#D1D1D1"/>
<path d="M24.9179 68C29.0955 68 32.482 64.5086 32.482 60.2018C32.482 55.895 29.0955 52.4037 24.9179 52.4037C20.7404 52.4037 17.3538 55.895 17.3538 60.2018C17.3538 64.5086 20.7404 68 24.9179 68Z" fill="#F05634"/>
<path d="M56.082 68C60.2596 68 63.6462 64.5086 63.6462 60.2018C63.6462 55.895 60.2596 52.4037 56.082 52.4037C51.9045 52.4037 48.5179 55.895 48.5179 60.2018C48.5179 64.5086 51.9045 68 56.082 68Z" fill="#F05634"/>
<path d="M32.482 60.2018C32.482 64.5086 29.0955 68 24.9179 68C20.7404 68 17.3538 64.5086 17.3538 60.2018M32.482 60.2018C32.482 55.895 29.0955 52.4037 24.9179 52.4037C20.7404 52.4037 17.3538 55.895 17.3538 60.2018M32.482 60.2018H48.5179M17.3538 60.2018H12.8154C12.2103 60.1498 11 59.3284 11 56.4587V45.5413M63.6462 60.2018C63.6462 64.5086 60.2596 68 56.082 68C51.9045 68 48.5179 64.5086 48.5179 60.2018M63.6462 60.2018C63.6462 55.895 60.2596 52.4037 56.082 52.4037C51.9045 52.4037 48.5179 55.895 48.5179 60.2018M63.6462 60.2018H66.6718M11 45.5413L17.959 35.2477C18.2615 34.8318 19.2903 34 20.9846 34H47.0051C47.4085 34 48.3969 34.1872 49.1231 34.9358C49.8492 35.6844 55.8803 42.318 58.8051 45.5413M11 45.5413H58.8051M58.8051 45.5413H67.2769C68.1846 45.5413 70 46.1028 70 48.3486V58.0183C70 58.7462 69.3344 60.2018 66.6718 60.2018M66.6718 60.2018H63.3436M48.2577 60.2018H32.2955" stroke="#D1D1D1" stroke-width="1.34108"/>
<path d="M24.0328 22.6993V28H24.843V22.6993V13.593H24.0328V17.2627L21.8722 15.0881L21.197 15.7677L24.0328 18.486V22.6993Z" fill="#D9D9D9"/>
<path d="M17.0108 15.224C17.2269 20.6606 21.8722 22.4728 24.0328 22.6993V18.486L21.197 15.7677L21.8722 15.0881L24.0328 17.2627V13.593H24.843V22.6993C27.1386 22.3822 32 20.4431 32 15.224C32 8.7001 27.0036 -0.134365 24.3028 0.00154943C21.6021 0.137464 16.7407 8.42827 17.0108 15.224Z" fill="#F05634"/>
<path d="M50.9672 22.6993V28H50.157V22.6993V13.593H50.9672V17.2627L53.1278 15.0881L53.803 15.7677L50.9672 18.486V22.6993Z" fill="#D9D9D9"/>
<path d="M57.9892 15.224C57.7731 20.6606 53.1278 22.4728 50.9672 22.6993V18.486L53.803 15.7677L53.1278 15.0881L50.9672 17.2627V13.593H50.157V22.6993C47.8614 22.3822 43 20.4431 43 15.224C43 8.7001 47.9964 -0.134365 50.6972 0.00154943C53.3979 0.137464 58.2593 8.42827 57.9892 15.224Z" fill="#F05634"/>
<path d="M2 28.9995C3.20748 27.4441 7.055 23.9993 12.5051 24C19.0255 24 19.75 29 25.9082 29C30.8347 29 59.3554 29 73 29" stroke="#F05634" stroke-width="1.44847"/>
</svg>
