<svg width="69" height="65" viewBox="0 0 69 65" fill="none" xmlns="http://www.w3.org/2000/svg">
<path fill-rule="evenodd" clip-rule="evenodd" d="M59.9246 55.6254V0.460938H8.40812V55.6254H14.5474H21.2872H34.1663H48.0464H59.9246ZM25.8917 16.5839H15.3482V3.52563H25.8917V16.5839ZM39.2379 16.5839H28.6944V3.52563H39.2379V16.5839ZM52.5841 16.5839H42.0406V3.52563H52.5841V16.5839ZM25.8917 32.3071H15.3482V19.2488H25.8917V32.3071ZM39.2379 32.3071H28.6944V19.2488H39.2379V32.3071ZM52.5841 32.3071H42.0406V19.2488H52.5841V32.3071Z" fill="#D1D1D1"/>
<path d="M42.0406 16.5839H52.5841V3.52563H42.0406V16.5839Z" fill="#EFEFEF"/>
<path d="M28.6944 16.5839H39.2379V3.52563H28.6944V16.5839Z" fill="#EFEFEF"/>
<path d="M15.3482 16.5839H25.8917V3.52563H15.3482V16.5839Z" fill="#EFEFEF"/>
<path d="M15.3482 32.3071H25.8917V19.2488H15.3482V32.3071Z" fill="#EFEFEF"/>
<path d="M28.6944 32.3071H39.2379V19.2488H28.6944V32.3071Z" fill="#EFEFEF"/>
<path d="M42.0406 32.3071H52.5841V19.2488H42.0406V32.3071Z" fill="#EFEFEF"/>
<path d="M15.3482 48.2968H25.8917V35.2385H15.3482V48.2968Z" fill="#EFEFEF"/>
<path d="M28.6944 48.2968H39.2379V35.2385H28.6944V48.2968Z" fill="#EFEFEF"/>
<path d="M42.0406 48.2968H52.5841V35.2385H42.0406V48.2968Z" fill="#EFEFEF"/>
<path d="M8.40812 55.6254L4.9381 59.2231L14.5474 55.6254H8.40812Z" fill="#F05634"/>
<path d="M4.9381 59.2231L0 64.1533L21.2872 55.6254H14.5474L4.9381 59.2231Z" fill="#D1D1D1"/>
<path d="M21.2872 55.6254L0 64.1533H10.4101L19.4855 60.4223L19.941 59.2097L21.2872 55.6254Z" fill="#F05634"/>
<path d="M10.4101 64.1533H18.0174L19.4855 60.4223L10.4101 64.1533Z" fill="#D1D1D1"/>
<path d="M28.8279 55.6254H21.2872L19.941 59.2097L28.8279 55.6254Z" fill="#D1D1D1"/>
<path d="M34.1663 55.6254H28.8279L19.941 59.2097L19.4855 60.4223L18.0174 64.1533L34.1663 55.6254Z" fill="#F05634"/>
<path d="M34.1663 55.6254L18.0174 64.1533H26.559L34.1663 60.4223V59.2231V55.6254Z" fill="#D1D1D1"/>
<path d="M29.0948 64.1533H34.1663V60.4223L26.559 64.1533H28.1605H29.0948Z" fill="#F05634"/>
<path d="M42.7079 55.6254H34.1663V59.2231L42.7079 55.6254Z" fill="#F05634"/>
<path d="M48.0464 55.6254H42.7079L34.1663 59.2231V60.4223V64.1533L48.0464 55.6254Z" fill="#D1D1D1"/>
<path d="M48.0464 55.6254L34.1663 64.1533H43.3752L50.0358 60.4223L49.5385 59.2231L48.0464 55.6254Z" fill="#F05634"/>
<path d="M43.3752 64.1533H51.5832L50.0358 60.4223L43.3752 64.1533Z" fill="#D1D1D1"/>
<path d="M55.6538 55.6254H48.0464L49.5385 59.2231L55.6538 55.6254Z" fill="#D1D1D1"/>
<path d="M59.9246 55.6254H55.6538L49.5385 59.2231L50.0358 60.4223L51.5832 64.1533L59.9246 55.6254Z" fill="#F05634"/>
<path d="M59.9246 55.6254L51.5832 64.1533H59.6576L63.7533 59.2231L59.9246 55.6254Z" fill="#D1D1D1"/>
<path d="M59.6576 64.1533H69L63.7533 59.2231L59.6576 64.1533Z" fill="#F05634"/>
</svg>
