<svg width="85" height="41" viewBox="0 0 85 41" fill="none" xmlns="http://www.w3.org/2000/svg">
<path d="M59.8074 10.6431C68.0283 10.2489 69.7649 13.4348 69.6056 15.077L53.8387 41H35.1342C22.3249 35.8763 27.4655 26.4904 31.6078 22.467C31.2255 11.6285 39.4145 9.90428 43.5568 10.397C51.3953 2.31736 57.6566 7.19453 59.8074 10.6431Z" fill="#D1D1D1"/>
<path d="M53.8387 41H78.7362C88.383 38.6136 84.7421 29.8577 81.8743 26.6556C81.8743 18.7731 75.6609 16.8023 72.5541 16.8022C66.6274 11.2844 61.6408 14.5031 59.8882 16.8022C52.0497 16.8022 50.0901 23.5352 50.0901 26.9017C44.737 35.7696 50.3336 40.0147 53.8387 41Z" fill="#F05634"/>
<path fill-rule="evenodd" clip-rule="evenodd" d="M20.3541 39.2593V40H21.8619V35.5556H20.3541V39.2593Z" fill="#6D6D6D"/>
<path d="M12.2857 35.4836L20.3541 35.5556H21.8619L30.7143 35.4836C34.1338 35.4836 37.0373 34.3353 39.4249 32.0387C41.8083 29.7421 43 26.9478 43 23.6557C43 21.0378 42.1267 18.7038 40.3801 16.6536C38.6294 14.5995 36.4589 13.0816 33.8686 12.0999C33.4468 8.21051 32.1149 5.222 29.8727 3.13439C27.6306 1.04677 24.8397 0.00197409 21.5 2.78433e-06C18.1603 -0.00196853 15.3694 1.04283 13.1273 3.13439C10.8851 5.22594 9.55317 8.21445 9.13136 12.0999C6.58003 13.1585 4.42081 14.6941 2.65372 16.7068C0.884572 18.7235 0 21.0398 0 23.6557C0 26.9498 1.19274 29.7441 3.57822 32.0387C5.96164 34.3353 8.86414 35.4836 12.2857 35.4836Z" fill="#F05634"/>
</svg>
