<svg width="85" height="49" viewBox="0 0 85 49" fill="none" xmlns="http://www.w3.org/2000/svg">
<path d="M5.17528 37.9204V48.8439H7.37085V37.9204H5.17528Z" fill="#D1D1D1"/>
<path d="M79.1974 48.8439V37.9204H77.3155H77.0018V48.8439H79.1974Z" fill="#D1D1D1"/>
<path d="M79.1974 26.9968V16.6194H77.0018V26.9968H79.1974Z" fill="#D1D1D1"/>
<path d="M79.1974 6.24204H77.0018V16.6194H79.1974V6.24204Z" fill="#D1D1D1"/>
<path d="M79.1974 6.24204V0.156051H77.0018V6.24204H79.1974Z" fill="#D1D1D1"/>
<path d="M5.17528 16.6194V26.9968H7.37085V16.6194H5.17528Z" fill="#D1D1D1"/>
<path d="M5.17528 6.24204V16.6194H7.37085V6.24204H5.17528Z" fill="#D1D1D1"/>
<path d="M5.17528 0.156051V6.24204H7.37085V0.156051H5.17528Z" fill="#D1D1D1"/>
<path d="M85 37.9204V26.9968H79.1974H77.0018H7.37085H5.17528H0V37.9204H5.17528H7.37085H77.0018H77.3155H79.1974H85Z" fill="#F05634"/>
<path d="M77.0018 16.6194V6.24204H7.37085V16.6194H77.0018Z" fill="#D1D1D1"/>
</svg>
