<svg width="86" height="65" viewBox="0 0 86 65" fill="none" xmlns="http://www.w3.org/2000/svg">
<path d="M57.0176 38.2105C51.4983 32.6842 36.7062 29.7675 30 29C30.0173 31.2515 30.036 33.9468 30.0532 36.8289C35.0771 37.8222 45.8583 40.5239 48.7917 43.3846C51.4942 41.435 54.2592 39.7171 57.0176 38.2105Z" fill="#D1D1D1"/>
<path d="M48.7917 43.3846C45.8583 40.5239 35.0771 37.8222 30.0532 36.8289C30.0727 40.0909 30.0904 43.5923 30.1022 46.9605C32.4611 46.9605 37.7902 47.6974 40.2353 50.6447C42.9519 47.9293 45.8343 45.5182 48.7917 43.3846Z" fill="#D1D1D1"/>
<path fill-rule="evenodd" clip-rule="evenodd" d="M85 38.2105V29C78.5742 29.6377 67.8478 32.2952 57.0176 38.2105C54.2592 39.7171 51.4942 41.435 48.7917 43.3846C45.8343 45.5182 42.9519 47.9293 40.2353 50.6447C36.4102 54.4682 32.9139 58.895 30 64H41H54.75H68.9583H85V56.6316V48.3421V38.2105Z" fill="#F05634"/>
<path d="M30.1022 46.9605C30.1334 55.8347 30.1239 63.7852 30 64C32.9139 58.895 36.4102 54.4682 40.2353 50.6447C37.7902 47.6974 32.4611 46.9605 30.1022 46.9605Z" fill="#D1D1D1"/>
<path d="M30 64H41M30 64C30.1239 63.7852 30.1334 55.8347 30.1022 46.9605M30 64C32.9139 58.895 36.4102 54.4682 40.2353 50.6447M85 38.2105V29C78.5742 29.6377 67.8478 32.2952 57.0176 38.2105M85 38.2105C75.2222 39.1316 52.7333 45.5789 41 64M85 38.2105V48.3421M41 64H54.75M85 48.3421C80.4167 47.5746 67.95 49.6316 54.75 64M85 48.3421V56.6316M54.75 64H68.9583M85 56.6316V64H68.9583M85 56.6316C82.7083 56.3246 76.2917 57.3684 68.9583 64M57.0176 38.2105C51.4983 32.6842 36.7062 29.7675 30 29C30.0173 31.2515 30.036 33.9468 30.0532 36.8289M57.0176 38.2105C54.2592 39.7171 51.4942 41.435 48.7917 43.3846M30.0532 36.8289C35.0771 37.8222 45.8583 40.5239 48.7917 43.3846M30.0532 36.8289C30.0727 40.0909 30.0904 43.5923 30.1022 46.9605M48.7917 43.3846C45.8343 45.5182 42.9519 47.9293 40.2353 50.6447M30.1022 46.9605C32.4611 46.9605 37.7902 47.6974 40.2353 50.6447" stroke="white" stroke-width="0.915136"/>
<path d="M24.0099 50.153V63H24.6257H25.2414V50.1553H24.6257L24.0099 50.153Z" fill="#6D6D6D"/>
<path d="M8.02823 34.0111C8.02823 47.1016 18.9216 50.2354 24.512 50.1931C30.1024 50.2354 40.9717 47.1016 40.9717 34.0111C41.177 31.2587 40.356 25.2034 35.4298 23.0014C36.8666 19.2296 37.9545 11.3189 30.8116 9.85093C31.015 6.61856 30.0293 0.183331 24.5 0.0661407C18.9706 0.183331 17.985 6.61856 18.1884 9.85093C11.0455 11.3189 12.1333 19.2296 13.5701 23.0014C8.644 25.2034 7.82298 31.2587 8.02823 34.0111Z" fill="#F05634"/>
</svg>
